<svg width="25" height="15" viewBox="0 0 25 15" fill="none" xmlns="http://www.w3.org/2000/svg">
<path d="M23.8961 3.66624C24.4501 2.7086 24.1214 1.48407 23.1618 0.931177C22.2023 0.378282 20.9753 0.706395 20.4213 1.66404L14.4685 11.9542C13.9145 12.9118 14.2433 14.1364 15.2028 14.6892C16.1624 15.2421 17.3894 14.914 17.9433 13.9564L23.8961 3.66624Z" fill="white"/>
<path d="M8.5511 8.99092L11.3057 4.22926C11.8597 3.27162 13.0866 2.94351 14.0462 3.49641C15.0057 4.0493 15.3345 5.27383 14.7805 6.23147L10.3092 13.9606C9.75523 14.9183 8.52827 15.2464 7.56873 14.6935C7.25648 14.5136 7.01102 14.2625 6.84105 13.9727L6.81023 13.9904L0.840401 3.67086C0.28641 2.71322 0.615173 1.48868 1.57471 0.93579C2.53425 0.382895 3.76121 0.711007 4.3152 1.66865L8.5511 8.99092Z" fill="white"/>
</svg>
