<svg width="36" height="40" viewBox="0 0 36 40" fill="none" xmlns="http://www.w3.org/2000/svg">
<path fill-rule="evenodd" clip-rule="evenodd" d="M15.4008 0.697148C17.0092 -0.232383 18.9908 -0.232383 20.5992 0.697148L33.4008 8.09535C35.0092 9.02489 36 10.7427 36 12.6018V27.3982C36 29.2573 35.0092 30.9751 33.4008 31.9046L20.5992 39.3029C18.9908 40.2324 17.0092 40.2324 15.4008 39.3029L2.59924 31.9046C0.990826 30.9751 0 29.2573 0 27.3982V12.6018C0 10.7427 0.990826 9.02489 2.59924 8.09536L15.4008 0.697148ZM19.8195 2.04908C18.6936 1.39841 17.3064 1.39841 16.1805 2.04908L3.37902 9.44729C2.25312 10.098 1.55955 11.3004 1.55955 12.6018V27.3982C1.55955 28.6995 2.25312 29.902 3.37902 30.5527L16.1805 37.9509C17.3064 38.6016 18.6936 38.6016 19.8195 37.9509L32.621 30.5527C33.7469 29.902 34.4405 28.6995 34.4405 27.3982V12.6018C34.4405 11.3004 33.7469 10.098 32.621 9.44729L19.8195 2.04908Z" fill="#97A1AF"/>
</svg>
