<svg width="36" height="40" viewBox="0 0 36 40" fill="none" xmlns="http://www.w3.org/2000/svg">
<path d="M15.7822 1.50441C17.1546 0.719883 18.8454 0.719883 20.2178 1.50441L33.0683 8.85047C34.4407 9.635 35.2861 11.0849 35.2861 12.6539V27.346C35.2861 28.9151 34.4407 30.365 33.0683 31.1495L20.2178 38.4956C18.8454 39.2801 17.1546 39.2801 15.7822 38.4956L2.93168 31.1495C1.55929 30.365 0.713867 28.9151 0.713867 27.346V12.6539C0.713867 11.0849 1.55929 9.635 2.93168 8.85047L15.7822 1.50441Z" fill="#141C24"/>
<path d="M15.7822 1.50441C17.1546 0.719883 18.8454 0.719883 20.2178 1.50441L33.0683 8.85047C34.4407 9.635 35.2861 11.0849 35.2861 12.6539V27.346C35.2861 28.9151 34.4407 30.365 33.0683 31.1495L20.2178 38.4956C18.8454 39.2801 17.1546 39.2801 15.7822 38.4956L2.93168 31.1495C1.55929 30.365 0.713867 28.9151 0.713867 27.346V12.6539C0.713867 11.0849 1.55929 9.635 2.93168 8.85047L15.7822 1.50441Z" fill="url(#paint0_angular_3092_1404)" fill-opacity="0.4"/>
<defs>
<radialGradient id="paint0_angular_3092_1404" cx="0" cy="0" r="1" gradientUnits="userSpaceOnUse" gradientTransform="translate(18 20) rotate(90) scale(19.7634 19.9603)">
<stop offset="0.000421542" stop-color="#122136"/>
<stop offset="0.479167" stop-color="#60B2FD" stop-opacity="0.19"/>
<stop offset="1" stop-color="#2D9DFF" stop-opacity="0.06"/>
</radialGradient>
</defs>
</svg>
