<svg width="350" height="416" viewBox="0 0 350 416" fill="none" xmlns="http://www.w3.org/2000/svg">
<path opacity="0.5" d="M519.082 485.301L636 -69M487.765 485.301L619.297 -69M456.448 485.301L603.291 -69M423.739 485.301L586.588 -68.301M391.03 485.301L569.886 -68.301M358.321 485.301L551.791 -68.301M322.828 485.301L534.393 -67.602M287.335 486L514.907 -67.602M250.45 486L495.42 -67.602M212.173 485.301L475.238 -67.602M173.201 485.301L453.664 -67.602M132.836 485.301L431.394 -67.602M90.3842 485.301L408.428 -67.602M47.236 485.301L384.07 -67.602M2 486L361.104 -67.602" stroke="url(#paint0_linear_3092_1729)" stroke-width="3"/>
<defs>
<linearGradient id="paint0_linear_3092_1729" x1="2" y1="486" x2="719.89" y2="338.049" gradientUnits="userSpaceOnUse">
<stop stop-color="#1975FF"/>
<stop offset="1" stop-color="#33A9FF"/>
</linearGradient>
</defs>
</svg>
