<svg width="320" height="190" viewBox="0 0 320 190" fill="none" xmlns="http://www.w3.org/2000/svg">
<g clip-path="url(#clip0_3092_294)">
<rect width="320" height="190" rx="18" fill="white"/>
<path d="M21.147 35L18.2734 24.8182H20.2571L22.0916 32.3004H22.1861L24.1449 24.8182H25.9496L27.9134 32.3054H28.0028L29.8374 24.8182H31.821L28.9474 35H27.1278L25.0895 27.8558H25.0099L22.9666 35H21.147ZM34.8201 30.5256V35H33.0204V24.8182H34.7804V28.6612H34.8699C35.0488 28.2304 35.3256 27.8906 35.7001 27.642C36.0779 27.3902 36.5585 27.2642 37.1419 27.2642C37.6722 27.2642 38.1345 27.3752 38.5289 27.5973C38.9234 27.8194 39.2283 28.1442 39.4437 28.5717C39.6625 28.9993 39.7718 29.5213 39.7718 30.1378V35H37.9721V30.4162C37.9721 29.9025 37.8395 29.5031 37.5744 29.218C37.3126 28.9297 36.9447 28.7855 36.4707 28.7855C36.1525 28.7855 35.8675 28.8551 35.6156 28.9943C35.367 29.1302 35.1715 29.3274 35.0289 29.5859C34.8897 29.8445 34.8201 30.1577 34.8201 30.5256ZM41.6064 35V27.3636H43.4061V35H41.6064ZM42.5112 26.2798C42.2261 26.2798 41.9809 26.1854 41.7754 25.9964C41.5699 25.8042 41.4672 25.5739 41.4672 25.3054C41.4672 25.0336 41.5699 24.8033 41.7754 24.6143C41.9809 24.4221 42.2261 24.326 42.5112 24.326C42.7995 24.326 43.0448 24.4221 43.247 24.6143C43.4525 24.8033 43.5552 25.0336 43.5552 25.3054C43.5552 25.5739 43.4525 25.8042 43.247 25.9964C43.0448 26.1854 42.7995 26.2798 42.5112 26.2798ZM49.07 27.3636V28.7557H44.68V27.3636H49.07ZM45.7638 25.5341H47.5636V32.7031C47.5636 32.9451 47.6 33.1307 47.6729 33.2599C47.7492 33.3859 47.8486 33.4721 47.9712 33.5185C48.0939 33.5649 48.2298 33.5881 48.3789 33.5881C48.4916 33.5881 48.5943 33.5798 48.6871 33.5632C48.7833 33.5466 48.8562 33.5317 48.9059 33.5185L49.2092 34.9254C49.113 34.9586 48.9755 34.995 48.7965 35.0348C48.6209 35.0746 48.4054 35.0978 48.1502 35.1044C47.6995 35.1177 47.2934 35.0497 46.9322 34.9006C46.5709 34.7481 46.2842 34.5128 46.0721 34.1946C45.8633 33.8764 45.7605 33.4787 45.7638 33.0014V25.5341ZM53.8738 35.1491C53.1081 35.1491 52.4469 34.9901 51.8901 34.6719C51.3366 34.3504 50.9107 33.8963 50.6124 33.3097C50.3141 32.7197 50.165 32.0253 50.165 31.2266C50.165 30.4411 50.3141 29.7517 50.6124 29.1584C50.914 28.5618 51.3349 28.0978 51.8752 27.7663C52.4154 27.4316 53.0501 27.2642 53.7793 27.2642C54.2499 27.2642 54.6941 27.3404 55.1117 27.4929C55.5326 27.642 55.9038 27.8741 56.2253 28.1889C56.5501 28.5038 56.8053 28.9048 56.9909 29.392C57.1766 29.8759 57.2694 30.4527 57.2694 31.1222V31.674H51.0101V30.4609H55.5442C55.5409 30.1162 55.4663 29.8097 55.3205 29.5412C55.1747 29.2694 54.9708 29.0556 54.709 28.8999C54.4505 28.7441 54.1489 28.6662 53.8042 28.6662C53.4363 28.6662 53.1131 28.7557 52.8347 28.9347C52.5563 29.1103 52.3392 29.3423 52.1834 29.6307C52.031 29.9157 51.9531 30.2289 51.9498 30.5703V31.6293C51.9498 32.0734 52.031 32.4545 52.1934 32.7727C52.3558 33.0876 52.5828 33.3295 52.8745 33.4986C53.1661 33.6643 53.5075 33.7472 53.8986 33.7472C54.1605 33.7472 54.3974 33.7107 54.6096 33.6378C54.8217 33.5616 55.0056 33.4505 55.1614 33.3047C55.3172 33.1589 55.4348 32.9782 55.5144 32.7628L57.1948 32.9517C57.0887 33.3958 56.8865 33.7836 56.5882 34.1151C56.2933 34.4432 55.9154 34.6984 55.4547 34.8807C54.994 35.0597 54.467 35.1491 53.8738 35.1491ZM64.8274 29.3821L63.1868 29.5611C63.1404 29.3954 63.0592 29.2396 62.9432 29.0938C62.8305 28.9479 62.678 28.8303 62.4858 28.7408C62.2936 28.6513 62.0582 28.6065 61.7798 28.6065C61.4053 28.6065 61.0904 28.6877 60.8352 28.8501C60.5833 29.0125 60.459 29.223 60.4624 29.4815C60.459 29.7036 60.5402 29.8842 60.706 30.0234C60.875 30.1626 61.1534 30.277 61.5412 30.3665L62.8438 30.6449C63.5663 30.8007 64.1032 31.0476 64.4545 31.3857C64.8092 31.7237 64.9882 32.1662 64.9915 32.7131C64.9882 33.1937 64.8473 33.6179 64.5689 33.9858C64.2938 34.3504 63.911 34.6354 63.4205 34.8409C62.9299 35.0464 62.3665 35.1491 61.7301 35.1491C60.7955 35.1491 60.0431 34.9536 59.473 34.5625C58.9029 34.1681 58.5632 33.6196 58.4538 32.9169L60.2088 32.7479C60.2884 33.0926 60.4574 33.3527 60.7159 33.5284C60.9744 33.7041 61.3108 33.7919 61.7251 33.7919C62.1527 33.7919 62.4957 33.7041 62.7543 33.5284C63.0161 33.3527 63.147 33.1357 63.147 32.8771C63.147 32.6584 63.0625 32.4777 62.8935 32.3352C62.7277 32.1927 62.4692 32.0833 62.1179 32.0071L60.8153 31.7337C60.0829 31.5812 59.541 31.3243 59.1896 30.9631C58.8383 30.5985 58.6643 30.1378 58.6676 29.581C58.6643 29.1103 58.7919 28.7027 59.0504 28.358C59.3123 28.0099 59.6752 27.7415 60.1392 27.5526C60.6065 27.3603 61.1451 27.2642 61.755 27.2642C62.6499 27.2642 63.3542 27.4548 63.8679 27.8359C64.3849 28.2171 64.7048 28.7325 64.8274 29.3821ZM66.4755 37.8636V27.3636H68.2454V28.6264H68.3498C68.4426 28.4408 68.5735 28.2436 68.7425 28.0348C68.9116 27.8227 69.1403 27.642 69.4286 27.4929C69.717 27.3404 70.0849 27.2642 70.5323 27.2642C71.1223 27.2642 71.6542 27.415 72.1282 27.7166C72.6055 28.0149 72.9833 28.4574 73.2617 29.044C73.5434 29.6274 73.6843 30.3433 73.6843 31.1918C73.6843 32.0303 73.5468 32.7429 73.2717 33.3295C72.9966 33.9162 72.622 34.3636 72.1481 34.6719C71.6741 34.9801 71.1372 35.1342 70.5373 35.1342C70.0998 35.1342 69.7369 35.0613 69.4485 34.9155C69.1602 34.7696 68.9281 34.594 68.7525 34.3885C68.5801 34.1797 68.4459 33.9825 68.3498 33.7969H68.2752V37.8636H66.4755ZM68.2404 31.1818C68.2404 31.6757 68.31 32.1082 68.4492 32.4794C68.5917 32.8506 68.7956 33.1406 69.0607 33.3494C69.3292 33.5549 69.654 33.6577 70.0352 33.6577C70.4329 33.6577 70.766 33.5516 71.0344 33.3395C71.3029 33.1241 71.5051 32.8307 71.641 32.4595C71.7802 32.085 71.8498 31.6591 71.8498 31.1818C71.8498 30.7079 71.7818 30.2869 71.646 29.919C71.5101 29.5511 71.3079 29.2628 71.0394 29.054C70.771 28.8452 70.4362 28.7408 70.0352 28.7408C69.6507 28.7408 69.3242 28.8419 69.0558 29.044C68.7873 29.2462 68.5835 29.5296 68.4442 29.8942C68.3084 30.2588 68.2404 30.688 68.2404 31.1818ZM77.4229 35.1541C76.939 35.1541 76.5032 35.0679 76.1154 34.8956C75.7309 34.7199 75.426 34.4614 75.2006 34.12C74.9786 33.7786 74.8675 33.3577 74.8675 32.8572C74.8675 32.4264 74.9471 32.0701 75.1062 31.7884C75.2653 31.5066 75.4824 31.2812 75.7575 31.1122C76.0326 30.9432 76.3424 30.8156 76.6871 30.7294C77.0352 30.6399 77.3948 30.5753 77.766 30.5355C78.2134 30.4891 78.5763 30.4477 78.8548 30.4112C79.1332 30.3714 79.3353 30.3118 79.4613 30.2322C79.5906 30.1494 79.6552 30.0218 79.6552 29.8494V29.8196C79.6552 29.4451 79.5442 29.1551 79.3221 28.9496C79.1 28.7441 78.7802 28.6413 78.3626 28.6413C77.9218 28.6413 77.5721 28.7375 77.3136 28.9297C77.0584 29.1219 76.886 29.349 76.7965 29.6108L75.1161 29.3722C75.2487 28.9081 75.4674 28.5204 75.7724 28.2088C76.0773 27.8939 76.4502 27.6586 76.891 27.5028C77.3318 27.3438 77.819 27.2642 78.3526 27.2642C78.7205 27.2642 79.0868 27.3073 79.4513 27.3935C79.8159 27.4796 80.149 27.6222 80.4506 27.821C80.7522 28.0166 80.9942 28.2834 81.1765 28.6214C81.3621 28.9595 81.4549 29.3821 81.4549 29.8892V35H79.7248V33.951H79.6651C79.5558 34.1631 79.4016 34.362 79.2028 34.5476C79.0072 34.7299 78.7603 34.8774 78.462 34.9901C78.167 35.0994 77.8207 35.1541 77.4229 35.1541ZM77.8903 33.8317C78.2515 33.8317 78.5647 33.7604 78.8299 33.6179C79.0951 33.4721 79.2989 33.2798 79.4414 33.0412C79.5872 32.8026 79.6602 32.5424 79.6602 32.2607V31.3608C79.6038 31.4072 79.5077 31.4503 79.3718 31.4901C79.2392 31.5298 79.0901 31.5646 78.9244 31.5945C78.7586 31.6243 78.5946 31.6508 78.4322 31.674C78.2698 31.6972 78.1289 31.7171 78.0096 31.7337C77.7411 31.7701 77.5008 31.8298 77.2887 31.9126C77.0766 31.9955 76.9092 32.1115 76.7866 32.2607C76.6639 32.4065 76.6026 32.5954 76.6026 32.8274C76.6026 33.1589 76.7236 33.4091 76.9656 33.5781C77.2075 33.7472 77.5157 33.8317 77.8903 33.8317ZM86.5955 35.1491C85.8332 35.1491 85.1786 34.9818 84.6317 34.647C84.0882 34.3123 83.6689 33.8499 83.3739 33.2599C83.0823 32.6667 82.9364 31.9839 82.9364 31.2116C82.9364 30.4361 83.0856 29.7517 83.3839 29.1584C83.6822 28.5618 84.1031 28.0978 84.6467 27.7663C85.1935 27.4316 85.8398 27.2642 86.5856 27.2642C87.2054 27.2642 87.7539 27.3786 88.2312 27.6072C88.7118 27.8326 89.0946 28.1525 89.3796 28.5668C89.6647 28.9777 89.8271 29.4583 89.8668 30.0085H88.1467C88.0771 29.6406 87.9113 29.334 87.6495 29.0888C87.391 28.8402 87.0446 28.7159 86.6104 28.7159C86.2425 28.7159 85.9194 28.8153 85.641 29.0142C85.3626 29.2098 85.1455 29.4915 84.9897 29.8594C84.8372 30.2273 84.761 30.6681 84.761 31.1818C84.761 31.7022 84.8372 32.1496 84.9897 32.5241C85.1422 32.8954 85.3559 33.1821 85.631 33.3842C85.9094 33.5831 86.2359 33.6825 86.6104 33.6825C86.8756 33.6825 87.1126 33.6328 87.3214 33.5334C87.5335 33.4306 87.7108 33.2831 87.8533 33.0909C87.9959 32.8987 88.0936 32.665 88.1467 32.3899H89.8668C89.8237 32.9302 89.6647 33.4091 89.3896 33.8267C89.1145 34.241 88.7399 34.5658 88.266 34.8011C87.792 35.0331 87.2352 35.1491 86.5955 35.1491ZM94.7253 35.1491C93.9597 35.1491 93.2985 34.9901 92.7417 34.6719C92.1882 34.3504 91.7623 33.8963 91.464 33.3097C91.1657 32.7197 91.0165 32.0253 91.0165 31.2266C91.0165 30.4411 91.1657 29.7517 91.464 29.1584C91.7656 28.5618 92.1865 28.0978 92.7267 27.7663C93.267 27.4316 93.9017 27.2642 94.6309 27.2642C95.1015 27.2642 95.5456 27.3404 95.9632 27.4929C96.3842 27.642 96.7554 27.8741 97.0769 28.1889C97.4017 28.5038 97.6569 28.9048 97.8425 29.392C98.0281 29.8759 98.1209 30.4527 98.1209 31.1222V31.674H91.8617V30.4609H96.3958C96.3925 30.1162 96.3179 29.8097 96.1721 29.5412C96.0262 29.2694 95.8224 29.0556 95.5605 28.8999C95.302 28.7441 95.0004 28.6662 94.6557 28.6662C94.2878 28.6662 93.9647 28.7557 93.6863 28.9347C93.4078 29.1103 93.1908 29.3423 93.035 29.6307C92.8825 29.9157 92.8046 30.2289 92.8013 30.5703V31.6293C92.8013 32.0734 92.8825 32.4545 93.0449 32.7727C93.2073 33.0876 93.4344 33.3295 93.726 33.4986C94.0177 33.6643 94.3591 33.7472 94.7502 33.7472C95.012 33.7472 95.249 33.7107 95.4611 33.6378C95.6732 33.5616 95.8572 33.4505 96.013 33.3047C96.1687 33.1589 96.2864 32.9782 96.3659 32.7628L98.0463 32.9517C97.9403 33.3958 97.7381 33.7836 97.4398 34.1151C97.1448 34.4432 96.767 34.6984 96.3063 34.8807C95.8456 35.0597 95.3186 35.1491 94.7253 35.1491ZM109.614 24.8182H111.458V31.4702C111.458 32.1993 111.286 32.8407 110.941 33.3942C110.6 33.9477 110.119 34.3802 109.5 34.6918C108.88 35 108.156 35.1541 107.327 35.1541C106.495 35.1541 105.769 35 105.15 34.6918C104.53 34.3802 104.049 33.9477 103.708 33.3942C103.366 32.8407 103.196 32.1993 103.196 31.4702V24.8182H105.04V31.3161C105.04 31.7403 105.133 32.1181 105.319 32.4496C105.507 32.781 105.773 33.0412 106.114 33.2301C106.455 33.4157 106.86 33.5085 107.327 33.5085C107.794 33.5085 108.199 33.4157 108.54 33.2301C108.885 33.0412 109.15 32.781 109.336 32.4496C109.521 32.1181 109.614 31.7403 109.614 31.3161V24.8182ZM115.308 24.8182V35H113.463V24.8182H115.308ZM120.778 35V24.8182H124.675C125.411 24.8182 126.023 24.9342 126.51 25.1662C127 25.3949 127.367 25.7081 127.609 26.1058C127.854 26.5036 127.977 26.9543 127.977 27.4581C127.977 27.8724 127.897 28.227 127.738 28.522C127.579 28.8137 127.365 29.0507 127.097 29.233C126.828 29.4152 126.528 29.5462 126.197 29.6257V29.7251C126.558 29.745 126.904 29.8561 127.236 30.0582C127.571 30.2571 127.844 30.5388 128.056 30.9034C128.268 31.268 128.374 31.7088 128.374 32.2259C128.374 32.7528 128.247 33.2268 127.991 33.6477C127.736 34.0653 127.352 34.3951 126.838 34.6371C126.324 34.879 125.678 35 124.899 35H120.778ZM122.622 33.4588H124.606C125.275 33.4588 125.758 33.3312 126.053 33.076C126.351 32.8175 126.5 32.486 126.5 32.0817C126.5 31.7801 126.425 31.5083 126.276 31.2663C126.127 31.0211 125.915 30.8288 125.64 30.6896C125.365 30.5471 125.037 30.4759 124.656 30.4759H122.622V33.4588ZM122.622 29.1484H124.447C124.765 29.1484 125.052 29.0904 125.307 28.9744C125.562 28.8551 125.763 28.6877 125.908 28.4723C126.058 28.2536 126.132 27.995 126.132 27.6967C126.132 27.3023 125.993 26.9775 125.714 26.7223C125.439 26.4671 125.03 26.3395 124.487 26.3395H122.622V29.1484ZM132.097 35.1541C131.613 35.1541 131.177 35.0679 130.789 34.8956C130.405 34.7199 130.1 34.4614 129.874 34.12C129.652 33.7786 129.541 33.3577 129.541 32.8572C129.541 32.4264 129.621 32.0701 129.78 31.7884C129.939 31.5066 130.156 31.2812 130.431 31.1122C130.706 30.9432 131.016 30.8156 131.361 30.7294C131.709 30.6399 132.069 30.5753 132.44 30.5355C132.887 30.4891 133.25 30.4477 133.529 30.4112C133.807 30.3714 134.009 30.3118 134.135 30.2322C134.264 30.1494 134.329 30.0218 134.329 29.8494V29.8196C134.329 29.4451 134.218 29.1551 133.996 28.9496C133.774 28.7441 133.454 28.6413 133.036 28.6413C132.596 28.6413 132.246 28.7375 131.987 28.9297C131.732 29.1219 131.56 29.349 131.47 29.6108L129.79 29.3722C129.923 28.9081 130.141 28.5204 130.446 28.2088C130.751 27.8939 131.124 27.6586 131.565 27.5028C132.006 27.3438 132.493 27.2642 133.026 27.2642C133.394 27.2642 133.761 27.3073 134.125 27.3935C134.49 27.4796 134.823 27.6222 135.124 27.821C135.426 28.0166 135.668 28.2834 135.85 28.6214C136.036 28.9595 136.129 29.3821 136.129 29.8892V35H134.399V33.951H134.339C134.23 34.1631 134.075 34.362 133.877 34.5476C133.681 34.7299 133.434 34.8774 133.136 34.9901C132.841 35.0994 132.494 35.1541 132.097 35.1541ZM132.564 33.8317C132.925 33.8317 133.239 33.7604 133.504 33.6179C133.769 33.4721 133.973 33.2798 134.115 33.0412C134.261 32.8026 134.334 32.5424 134.334 32.2607V31.3608C134.278 31.4072 134.182 31.4503 134.046 31.4901C133.913 31.5298 133.764 31.5646 133.598 31.5945C133.432 31.6243 133.268 31.6508 133.106 31.674C132.944 31.6972 132.803 31.7171 132.683 31.7337C132.415 31.7701 132.175 31.8298 131.963 31.9126C131.75 31.9955 131.583 32.1115 131.46 32.2607C131.338 32.4065 131.276 32.5954 131.276 32.8274C131.276 33.1589 131.397 33.4091 131.639 33.5781C131.881 33.7472 132.19 33.8317 132.564 33.8317ZM139.738 30.5256V35H137.938V27.3636H139.659V28.6612H139.748C139.924 28.2337 140.204 27.8939 140.588 27.642C140.976 27.3902 141.455 27.2642 142.025 27.2642C142.552 27.2642 143.011 27.3769 143.402 27.6023C143.797 27.8277 144.102 28.1541 144.317 28.5817C144.536 29.0092 144.643 29.5279 144.64 30.1378V35H142.84V30.4162C142.84 29.9058 142.708 29.5064 142.443 29.218C142.181 28.9297 141.818 28.7855 141.354 28.7855C141.039 28.7855 140.759 28.8551 140.514 28.9943C140.272 29.1302 140.081 29.3274 139.942 29.5859C139.806 29.8445 139.738 30.1577 139.738 30.5256ZM148.11 32.6037L148.105 30.4311H148.394L151.138 27.3636H153.241L149.865 31.1222H149.492L148.11 32.6037ZM146.47 35V24.8182H148.269V35H146.47ZM151.262 35L148.776 31.5249L149.99 30.2571L153.415 35H151.262Z" fill="#141C24"/>
<g clip-path="url(#clip1_3092_294)">
<g opacity="0.15" filter="url(#filter0_f_3092_294)">
<path d="M382 69C382 115.944 343.944 154 297 154C250.056 154 212 115.944 212 69C212 22.0558 250.056 -16 297 -16C343.944 -16 382 22.0558 382 69Z" fill="url(#paint0_linear_3092_294)"/>
<path d="M227 148C227 194.944 200.137 233 167 233C133.863 233 107 194.944 107 148C107 101.056 133.863 63 167 63C200.137 63 227 101.056 227 148Z" fill="#741FAD"/>
<path d="M116 80C116 126.944 77.9442 165 31 165C-15.9442 165 -54 126.944 -54 80C-54 33.0558 -15.9442 -5 31 -5C77.9442 -5 116 33.0558 116 80Z" fill="#5C5CFF"/>
</g>
</g>
<g opacity="0.3">
<rect x="53" y="122" width="240" height="240" rx="120" fill="white"/>
</g>
<g opacity="0.3">
<rect x="166" y="43" width="240" height="240" rx="120" fill="white"/>
</g>
<path d="M22.9886 128.205C23.5076 128.208 24.0189 128.303 24.5227 128.489C25.0265 128.674 25.4811 128.977 25.8864 129.398C26.2955 129.818 26.6212 130.386 26.8636 131.102C27.1098 131.814 27.2348 132.701 27.2386 133.761C27.2386 134.78 27.1364 135.687 26.9318 136.483C26.7273 137.275 26.4337 137.943 26.0511 138.489C25.6723 139.034 25.2121 139.449 24.6705 139.733C24.1288 140.017 23.5189 140.159 22.8409 140.159C22.1477 140.159 21.5322 140.023 20.9943 139.75C20.4564 139.477 20.0189 139.1 19.6818 138.619C19.3447 138.134 19.1345 137.578 19.0511 136.949H20.7841C20.8977 137.449 21.1288 137.854 21.4773 138.165C21.8295 138.472 22.2841 138.625 22.8409 138.625C23.6932 138.625 24.358 138.254 24.8352 137.511C25.3125 136.765 25.553 135.723 25.5568 134.386H25.4659C25.2689 134.712 25.0227 134.992 24.7273 135.227C24.4356 135.462 24.108 135.644 23.7443 135.773C23.3807 135.902 22.9924 135.966 22.5795 135.966C21.9091 135.966 21.2992 135.801 20.75 135.472C20.2008 135.142 19.7633 134.689 19.4375 134.114C19.1117 133.538 18.9489 132.881 18.9489 132.142C18.9489 131.407 19.1155 130.741 19.4489 130.142C19.786 129.544 20.2557 129.07 20.858 128.722C21.464 128.369 22.1742 128.197 22.9886 128.205ZM22.9943 129.682C22.5511 129.682 22.1515 129.792 21.7955 130.011C21.4432 130.227 21.1648 130.521 20.9602 130.892C20.7557 131.259 20.6534 131.669 20.6534 132.119C20.6534 132.57 20.7519 132.979 20.9489 133.347C21.1496 133.71 21.4223 134 21.767 134.216C22.1155 134.428 22.5133 134.534 22.9602 134.534C23.2936 134.534 23.6042 134.47 23.892 134.341C24.1799 134.212 24.4318 134.034 24.6477 133.807C24.8636 133.576 25.0322 133.314 25.1534 133.023C25.2746 132.731 25.3352 132.424 25.3352 132.102C25.3352 131.674 25.233 131.277 25.0284 130.909C24.8277 130.542 24.5511 130.246 24.1989 130.023C23.8466 129.795 23.4451 129.682 22.9943 129.682ZM33.223 140.159C32.4086 140.159 31.6889 140.019 31.0639 139.739C30.4427 139.458 29.956 139.072 29.6037 138.58C29.2514 138.087 29.0772 137.527 29.081 136.898C29.0772 136.405 29.1776 135.953 29.3821 135.54C29.5904 135.123 29.8726 134.777 30.2287 134.5C30.5848 134.22 30.9825 134.042 31.4219 133.966V133.898C30.8423 133.758 30.3783 133.447 30.0298 132.966C29.6813 132.485 29.509 131.932 29.5128 131.307C29.509 130.712 29.6662 130.182 29.9844 129.716C30.3063 129.246 30.7476 128.877 31.3082 128.608C31.8688 128.339 32.5071 128.205 33.223 128.205C33.9313 128.205 34.5639 128.341 35.1207 128.614C35.6813 128.883 36.1226 129.252 36.4446 129.722C36.7666 130.187 36.9295 130.716 36.9332 131.307C36.9295 131.932 36.7514 132.485 36.3991 132.966C36.0469 133.447 35.5885 133.758 35.0241 133.898V133.966C35.4598 134.042 35.8518 134.22 36.2003 134.5C36.5526 134.777 36.8329 135.123 37.0412 135.54C37.2533 135.953 37.3613 136.405 37.3651 136.898C37.3613 137.527 37.1832 138.087 36.831 138.58C36.4787 139.072 35.9901 139.458 35.3651 139.739C34.7438 140.019 34.0298 140.159 33.223 140.159ZM33.223 138.722C33.7041 138.722 34.1207 138.642 34.473 138.483C34.8253 138.32 35.098 138.095 35.2912 137.807C35.4844 137.515 35.5829 137.174 35.5866 136.784C35.5829 136.379 35.4768 136.021 35.2685 135.71C35.0639 135.4 34.7855 135.155 34.4332 134.977C34.081 134.799 33.6776 134.71 33.223 134.71C32.7647 134.71 32.3575 134.799 32.0014 134.977C31.6454 135.155 31.3651 135.4 31.1605 135.71C30.956 136.021 30.8556 136.379 30.8594 136.784C30.8556 137.174 30.9484 137.515 31.1378 137.807C31.331 138.095 31.6056 138.32 31.9616 138.483C32.3177 138.642 32.7382 138.722 33.223 138.722ZM33.223 133.307C33.6094 133.307 33.9522 133.229 34.2514 133.074C34.5507 132.919 34.7855 132.703 34.956 132.426C35.1302 132.15 35.2192 131.826 35.223 131.455C35.2192 131.091 35.1321 130.773 34.9616 130.5C34.795 130.227 34.562 130.017 34.2628 129.869C33.9635 129.718 33.617 129.642 33.223 129.642C32.8215 129.642 32.4692 129.718 32.1662 129.869C31.867 130.017 31.634 130.227 31.4673 130.5C31.3007 130.773 31.2192 131.091 31.223 131.455C31.2192 131.826 31.3026 132.15 31.473 132.426C31.6435 132.703 31.8783 132.919 32.1776 133.074C32.4806 133.229 32.8291 133.307 33.223 133.307ZM39.7926 140L44.8722 129.955V129.869H38.9972V128.364H46.6903V129.92L41.6278 140H39.7926ZM52.4787 140.159C51.9598 140.152 51.4484 140.057 50.9446 139.875C50.4446 139.693 49.9901 139.39 49.581 138.966C49.1719 138.542 48.8442 137.972 48.598 137.256C48.3556 136.54 48.2344 135.646 48.2344 134.574C48.2344 133.559 48.3348 132.657 48.5355 131.869C48.7401 131.081 49.0336 130.417 49.4162 129.875C49.7988 129.33 50.2609 128.915 50.8026 128.631C51.3442 128.347 51.9522 128.205 52.6264 128.205C53.3196 128.205 53.9351 128.341 54.473 128.614C55.0109 128.886 55.4465 129.263 55.7798 129.744C56.117 130.225 56.331 130.773 56.4219 131.386H54.6889C54.5715 130.902 54.3385 130.506 53.9901 130.199C53.6416 129.892 53.187 129.739 52.6264 129.739C51.7741 129.739 51.1094 130.11 50.6321 130.852C50.1586 131.595 49.92 132.627 49.9162 133.949H50.0014C50.2022 133.619 50.4484 133.339 50.7401 133.108C51.0355 132.873 51.3651 132.693 51.7287 132.568C52.0961 132.439 52.4825 132.375 52.8878 132.375C53.562 132.375 54.1719 132.54 54.7173 132.869C55.2666 133.195 55.7041 133.646 56.0298 134.222C56.3556 134.797 56.5185 135.456 56.5185 136.199C56.5185 136.941 56.3499 137.614 56.0128 138.216C55.6795 138.818 55.2098 139.295 54.6037 139.648C53.9976 139.996 53.2893 140.167 52.4787 140.159ZM52.473 138.682C52.92 138.682 53.3196 138.572 53.6719 138.352C54.0241 138.133 54.3026 137.837 54.5071 137.466C54.7116 137.095 54.8139 136.68 54.8139 136.222C54.8139 135.775 54.7135 135.367 54.5128 135C54.3158 134.633 54.0431 134.341 53.6946 134.125C53.3499 133.909 52.956 133.801 52.5128 133.801C52.1757 133.801 51.8632 133.866 51.5753 133.994C51.2912 134.123 51.0412 134.301 50.8253 134.528C50.6094 134.756 50.4389 135.017 50.3139 135.312C50.1927 135.604 50.1321 135.913 50.1321 136.239C50.1321 136.674 50.2325 137.078 50.4332 137.449C50.6378 137.82 50.9162 138.119 51.2685 138.347C51.6245 138.57 52.026 138.682 52.473 138.682ZM70.8977 140.159C70.1856 140.159 69.5455 140.023 68.9773 139.75C68.4129 139.473 67.9621 139.095 67.625 138.614C67.2879 138.133 67.108 137.583 67.0852 136.966H68.7898C68.8314 137.466 69.053 137.877 69.4545 138.199C69.8561 138.521 70.3371 138.682 70.8977 138.682C71.3447 138.682 71.7405 138.58 72.0852 138.375C72.4337 138.167 72.7064 137.881 72.9034 137.517C73.1042 137.153 73.2045 136.739 73.2045 136.273C73.2045 135.799 73.1023 135.377 72.8977 135.006C72.6932 134.634 72.411 134.343 72.0511 134.131C71.6951 133.919 71.286 133.811 70.8239 133.807C70.4716 133.807 70.1174 133.867 69.7614 133.989C69.4053 134.11 69.1174 134.269 68.8977 134.466L67.2898 134.227L67.9432 128.364H74.3409V129.869H69.4034L69.0341 133.125H69.1023C69.3295 132.905 69.6307 132.722 70.0057 132.574C70.3845 132.426 70.7898 132.352 71.2216 132.352C71.9299 132.352 72.5606 132.521 73.1136 132.858C73.6705 133.195 74.108 133.655 74.4261 134.239C74.7481 134.818 74.9072 135.485 74.9034 136.239C74.9072 136.992 74.7367 137.665 74.392 138.256C74.0511 138.847 73.5777 139.312 72.9716 139.653C72.3693 139.991 71.678 140.159 70.8977 140.159ZM76.7344 137.727V136.307L81.7628 128.364H82.8821V130.455H82.1719L78.5753 136.148V136.239H85.4673V137.727H76.7344ZM82.2514 140V137.295L82.2628 136.648V128.364H83.9276V140H82.2514ZM91.4986 140.159C90.7183 140.159 90.0213 140.025 89.4077 139.756C88.7978 139.487 88.3149 139.114 87.9588 138.636C87.6065 138.155 87.4171 137.598 87.3906 136.966H89.1747C89.1974 137.311 89.313 137.61 89.5213 137.864C89.7334 138.114 90.0099 138.307 90.3509 138.443C90.6918 138.58 91.0705 138.648 91.4872 138.648C91.9455 138.648 92.3509 138.568 92.7031 138.409C93.0592 138.25 93.3376 138.028 93.5384 137.744C93.7391 137.456 93.8395 137.125 93.8395 136.75C93.8395 136.36 93.7391 136.017 93.5384 135.722C93.3414 135.422 93.0516 135.187 92.669 135.017C92.2902 134.847 91.8319 134.761 91.294 134.761H90.3111V133.33H91.294C91.7259 133.33 92.1046 133.252 92.4304 133.097C92.7599 132.941 93.0175 132.725 93.2031 132.449C93.3887 132.169 93.4815 131.841 93.4815 131.466C93.4815 131.106 93.4001 130.794 93.2372 130.528C93.0781 130.259 92.8509 130.049 92.5554 129.898C92.2637 129.746 91.919 129.67 91.5213 129.67C91.1425 129.67 90.7884 129.741 90.4588 129.881C90.133 130.017 89.8679 130.214 89.6634 130.472C89.4588 130.725 89.349 131.03 89.3338 131.386H87.6349C87.6539 130.758 87.8395 130.205 88.1918 129.727C88.5478 129.25 89.0175 128.877 89.6009 128.608C90.1842 128.339 90.8319 128.205 91.544 128.205C92.2902 128.205 92.9342 128.35 93.4759 128.642C94.0213 128.93 94.4418 129.314 94.7372 129.795C95.0365 130.277 95.1842 130.803 95.1804 131.375C95.1842 132.027 95.0024 132.58 94.6349 133.034C94.2713 133.489 93.7865 133.794 93.1804 133.949V134.04C93.9531 134.157 94.5516 134.464 94.9759 134.96C95.4039 135.456 95.616 136.072 95.6122 136.807C95.616 137.447 95.438 138.021 95.0781 138.528C94.7221 139.036 94.2353 139.436 93.6179 139.727C93.0005 140.015 92.294 140.159 91.4986 140.159ZM97.7599 140V138.727L101.697 134.648C102.118 134.205 102.464 133.816 102.737 133.483C103.014 133.146 103.22 132.826 103.357 132.523C103.493 132.22 103.561 131.898 103.561 131.557C103.561 131.17 103.47 130.837 103.288 130.557C103.107 130.273 102.858 130.055 102.544 129.903C102.23 129.748 101.875 129.67 101.482 129.67C101.065 129.67 100.701 129.756 100.391 129.926C100.08 130.097 99.8414 130.337 99.6747 130.648C99.508 130.958 99.4247 131.322 99.4247 131.739H97.7486C97.7486 131.03 97.9115 130.411 98.2372 129.881C98.563 129.35 99.0099 128.939 99.5781 128.648C100.146 128.352 100.792 128.205 101.516 128.205C102.247 128.205 102.891 128.35 103.447 128.642C104.008 128.93 104.446 129.324 104.76 129.824C105.074 130.32 105.232 130.881 105.232 131.506C105.232 131.938 105.15 132.36 104.987 132.773C104.828 133.186 104.55 133.646 104.152 134.153C103.754 134.657 103.201 135.269 102.493 135.989L100.18 138.409V138.494H105.419V140H97.7599ZM120.456 128.364V140H118.695V130.125H118.626L115.842 131.943V130.261L118.746 128.364H120.456ZM123.604 140V138.727L127.541 134.648C127.962 134.205 128.308 133.816 128.581 133.483C128.857 133.146 129.064 132.826 129.2 132.523C129.337 132.22 129.405 131.898 129.405 131.557C129.405 131.17 129.314 130.837 129.132 130.557C128.95 130.273 128.702 130.055 128.388 129.903C128.073 129.748 127.719 129.67 127.325 129.67C126.909 129.67 126.545 129.756 126.234 129.926C125.924 130.097 125.685 130.337 125.518 130.648C125.352 130.958 125.268 131.322 125.268 131.739H123.592C123.592 131.03 123.755 130.411 124.081 129.881C124.407 129.35 124.854 128.939 125.422 128.648C125.99 128.352 126.636 128.205 127.359 128.205C128.09 128.205 128.734 128.35 129.291 128.642C129.852 128.93 130.289 129.324 130.604 129.824C130.918 130.32 131.075 130.881 131.075 131.506C131.075 131.938 130.994 132.36 130.831 132.773C130.672 133.186 130.393 133.646 129.996 134.153C129.598 134.657 129.045 135.269 128.337 135.989L126.024 138.409V138.494H131.263V140H123.604ZM137.467 140.159C136.687 140.159 135.99 140.025 135.376 139.756C134.767 139.487 134.284 139.114 133.928 138.636C133.575 138.155 133.386 137.598 133.359 136.966H135.143C135.166 137.311 135.282 137.61 135.49 137.864C135.702 138.114 135.979 138.307 136.32 138.443C136.661 138.58 137.039 138.648 137.456 138.648C137.914 138.648 138.32 138.568 138.672 138.409C139.028 138.25 139.306 138.028 139.507 137.744C139.708 137.456 139.808 137.125 139.808 136.75C139.808 136.36 139.708 136.017 139.507 135.722C139.31 135.422 139.02 135.187 138.638 135.017C138.259 134.847 137.801 134.761 137.263 134.761H136.28V133.33H137.263C137.695 133.33 138.073 133.252 138.399 133.097C138.729 132.941 138.986 132.725 139.172 132.449C139.357 132.169 139.45 131.841 139.45 131.466C139.45 131.106 139.369 130.794 139.206 130.528C139.047 130.259 138.82 130.049 138.524 129.898C138.232 129.746 137.888 129.67 137.49 129.67C137.111 129.67 136.757 129.741 136.428 129.881C136.102 130.017 135.837 130.214 135.632 130.472C135.428 130.725 135.318 131.03 135.303 131.386H133.604C133.623 130.758 133.808 130.205 134.161 129.727C134.517 129.25 134.986 128.877 135.57 128.608C136.153 128.339 136.801 128.205 137.513 128.205C138.259 128.205 138.903 128.35 139.445 128.642C139.99 128.93 140.411 129.314 140.706 129.795C141.005 130.277 141.153 130.803 141.149 131.375C141.153 132.027 140.971 132.58 140.604 133.034C140.24 133.489 139.755 133.794 139.149 133.949V134.04C139.922 134.157 140.52 134.464 140.945 134.96C141.373 135.456 141.585 136.072 141.581 136.807C141.585 137.447 141.407 138.021 141.047 138.528C140.691 139.036 140.204 139.436 139.587 139.727C138.969 140.015 138.263 140.159 137.467 140.159ZM143.484 137.727V136.307L148.513 128.364H149.632V130.455H148.922L145.325 136.148V136.239H152.217V137.727H143.484ZM149.001 140V137.295L149.013 136.648V128.364H150.678V140H149.001ZM166.507 140.159C165.795 140.159 165.155 140.023 164.587 139.75C164.022 139.473 163.571 139.095 163.234 138.614C162.897 138.133 162.717 137.583 162.695 136.966H164.399C164.441 137.466 164.662 137.877 165.064 138.199C165.465 138.521 165.946 138.682 166.507 138.682C166.954 138.682 167.35 138.58 167.695 138.375C168.043 138.167 168.316 137.881 168.513 137.517C168.714 137.153 168.814 136.739 168.814 136.273C168.814 135.799 168.712 135.377 168.507 135.006C168.303 134.634 168.02 134.343 167.661 134.131C167.304 133.919 166.895 133.811 166.433 133.807C166.081 133.807 165.727 133.867 165.371 133.989C165.015 134.11 164.727 134.269 164.507 134.466L162.899 134.227L163.553 128.364H169.95V129.869H165.013L164.643 133.125H164.712C164.939 132.905 165.24 132.722 165.615 132.574C165.994 132.426 166.399 132.352 166.831 132.352C167.539 132.352 168.17 132.521 168.723 132.858C169.28 133.195 169.717 133.655 170.036 134.239C170.357 134.818 170.517 135.485 170.513 136.239C170.517 136.992 170.346 137.665 170.001 138.256C169.661 138.847 169.187 139.312 168.581 139.653C167.979 139.991 167.287 140.159 166.507 140.159ZM176.651 140.159C176.132 140.152 175.62 140.057 175.116 139.875C174.616 139.693 174.162 139.39 173.753 138.966C173.344 138.542 173.016 137.972 172.77 137.256C172.527 136.54 172.406 135.646 172.406 134.574C172.406 133.559 172.507 132.657 172.707 131.869C172.912 131.081 173.205 130.417 173.588 129.875C173.971 129.33 174.433 128.915 174.974 128.631C175.516 128.347 176.124 128.205 176.798 128.205C177.491 128.205 178.107 128.341 178.645 128.614C179.183 128.886 179.618 129.263 179.952 129.744C180.289 130.225 180.503 130.773 180.594 131.386H178.861C178.743 130.902 178.51 130.506 178.162 130.199C177.813 129.892 177.359 129.739 176.798 129.739C175.946 129.739 175.281 130.11 174.804 130.852C174.33 131.595 174.092 132.627 174.088 133.949H174.173C174.374 133.619 174.62 133.339 174.912 133.108C175.207 132.873 175.537 132.693 175.901 132.568C176.268 132.439 176.654 132.375 177.06 132.375C177.734 132.375 178.344 132.54 178.889 132.869C179.438 133.195 179.876 133.646 180.202 134.222C180.527 134.797 180.69 135.456 180.69 136.199C180.69 136.941 180.522 137.614 180.185 138.216C179.851 138.818 179.382 139.295 178.776 139.648C178.17 139.996 177.461 140.167 176.651 140.159ZM176.645 138.682C177.092 138.682 177.491 138.572 177.844 138.352C178.196 138.133 178.474 137.837 178.679 137.466C178.884 137.095 178.986 136.68 178.986 136.222C178.986 135.775 178.885 135.367 178.685 135C178.488 134.633 178.215 134.341 177.866 134.125C177.522 133.909 177.128 133.801 176.685 133.801C176.348 133.801 176.035 133.866 175.747 133.994C175.463 134.123 175.213 134.301 174.997 134.528C174.781 134.756 174.611 135.017 174.486 135.312C174.365 135.604 174.304 135.913 174.304 136.239C174.304 136.674 174.404 137.078 174.605 137.449C174.81 137.82 175.088 138.119 175.44 138.347C175.796 138.57 176.198 138.682 176.645 138.682ZM183.152 140L188.232 129.955V129.869H182.357V128.364H190.05V129.92L184.987 140H183.152ZM195.723 140.159C194.909 140.159 194.189 140.019 193.564 139.739C192.943 139.458 192.456 139.072 192.104 138.58C191.751 138.087 191.577 137.527 191.581 136.898C191.577 136.405 191.678 135.953 191.882 135.54C192.09 135.123 192.373 134.777 192.729 134.5C193.085 134.22 193.482 134.042 193.922 133.966V133.898C193.342 133.758 192.878 133.447 192.53 132.966C192.181 132.485 192.009 131.932 192.013 131.307C192.009 130.712 192.166 130.182 192.484 129.716C192.806 129.246 193.248 128.877 193.808 128.608C194.369 128.339 195.007 128.205 195.723 128.205C196.431 128.205 197.064 128.341 197.621 128.614C198.181 128.883 198.623 129.252 198.945 129.722C199.267 130.187 199.429 130.716 199.433 131.307C199.429 131.932 199.251 132.485 198.899 132.966C198.547 133.447 198.089 133.758 197.524 133.898V133.966C197.96 134.042 198.352 134.22 198.7 134.5C199.053 134.777 199.333 135.123 199.541 135.54C199.753 135.953 199.861 136.405 199.865 136.898C199.861 137.527 199.683 138.087 199.331 138.58C198.979 139.072 198.49 139.458 197.865 139.739C197.244 140.019 196.53 140.159 195.723 140.159ZM195.723 138.722C196.204 138.722 196.621 138.642 196.973 138.483C197.325 138.32 197.598 138.095 197.791 137.807C197.984 137.515 198.083 137.174 198.087 136.784C198.083 136.379 197.977 136.021 197.768 135.71C197.564 135.4 197.286 135.155 196.933 134.977C196.581 134.799 196.178 134.71 195.723 134.71C195.265 134.71 194.857 134.799 194.501 134.977C194.145 135.155 193.865 135.4 193.661 135.71C193.456 136.021 193.356 136.379 193.359 136.784C193.356 137.174 193.448 137.515 193.638 137.807C193.831 138.095 194.106 138.32 194.462 138.483C194.818 138.642 195.238 138.722 195.723 138.722ZM195.723 133.307C196.109 133.307 196.452 133.229 196.751 133.074C197.051 132.919 197.286 132.703 197.456 132.426C197.63 132.15 197.719 131.826 197.723 131.455C197.719 131.091 197.632 130.773 197.462 130.5C197.295 130.227 197.062 130.017 196.763 129.869C196.464 129.718 196.117 129.642 195.723 129.642C195.321 129.642 194.969 129.718 194.666 129.869C194.367 130.017 194.134 130.227 193.967 130.5C193.801 130.773 193.719 131.091 193.723 131.455C193.719 131.826 193.803 132.15 193.973 132.426C194.143 132.703 194.378 132.919 194.678 133.074C194.981 133.229 195.329 133.307 195.723 133.307Z" fill="#344051"/>
<path d="M23.1307 156.818H24.3636V164.097C24.3636 164.746 24.2443 165.298 24.0057 165.752C23.767 166.206 23.4306 166.551 22.9964 166.786C22.5623 167.022 22.0502 167.139 21.4602 167.139C20.9034 167.139 20.4079 167.038 19.9737 166.836C19.5395 166.63 19.1982 166.339 18.9496 165.961C18.701 165.583 18.5767 165.134 18.5767 164.614H19.7898C19.7898 164.902 19.861 165.154 20.0036 165.369C20.1494 165.581 20.3482 165.747 20.6001 165.866C20.852 165.986 21.1387 166.045 21.4602 166.045C21.8149 166.045 22.1165 165.971 22.3651 165.822C22.6136 165.673 22.8026 165.454 22.9318 165.165C23.0644 164.874 23.1307 164.518 23.1307 164.097V156.818ZM29.8771 167.159C29.1413 167.159 28.5066 166.997 27.973 166.672C27.4427 166.344 27.0334 165.886 26.745 165.3C26.46 164.71 26.3175 164.024 26.3175 163.241C26.3175 162.459 26.46 161.77 26.745 161.173C27.0334 160.573 27.4344 160.106 27.9482 159.771C28.4652 159.433 29.0684 159.264 29.7578 159.264C30.1555 159.264 30.5483 159.33 30.9361 159.463C31.3239 159.596 31.6768 159.811 31.995 160.109C32.3132 160.404 32.5668 160.795 32.7557 161.283C32.9446 161.77 33.0391 162.37 33.0391 163.082V163.58H27.1527V162.565H31.8459C31.8459 162.134 31.7597 161.75 31.5874 161.412C31.4183 161.074 31.1764 160.807 30.8615 160.612C30.55 160.416 30.1821 160.318 29.7578 160.318C29.2905 160.318 28.8861 160.434 28.5447 160.666C28.2067 160.895 27.9465 161.193 27.7642 161.561C27.5819 161.929 27.4908 162.323 27.4908 162.744V163.42C27.4908 163.997 27.5902 164.486 27.7891 164.887C27.9912 165.285 28.2713 165.588 28.6293 165.797C28.9872 166.002 29.4032 166.105 29.8771 166.105C30.1854 166.105 30.4638 166.062 30.7124 165.976C30.9643 165.886 31.1813 165.754 31.3636 165.578C31.5459 165.399 31.6868 165.177 31.7862 164.912L32.9197 165.23C32.8004 165.615 32.5999 165.953 32.3182 166.244C32.0365 166.533 31.6884 166.758 31.2741 166.92C30.8598 167.08 30.3942 167.159 29.8771 167.159ZM35.9972 162.406V167H34.8239V159.364H35.9574V160.557H36.0568C36.2358 160.169 36.5076 159.857 36.8722 159.622C37.2367 159.384 37.7074 159.264 38.2841 159.264C38.8011 159.264 39.2536 159.37 39.6413 159.582C40.0291 159.791 40.3307 160.109 40.5462 160.537C40.7616 160.961 40.8693 161.498 40.8693 162.148V167H39.696V162.227C39.696 161.627 39.5402 161.16 39.2287 160.825C38.9171 160.487 38.4896 160.318 37.946 160.318C37.5715 160.318 37.2367 160.399 36.9418 160.562C36.6501 160.724 36.4197 160.961 36.2507 161.273C36.0817 161.584 35.9972 161.962 35.9972 162.406ZM44.1866 162.406V167H43.0133V159.364H44.1468V160.557H44.2463C44.4252 160.169 44.697 159.857 45.0616 159.622C45.4262 159.384 45.8968 159.264 46.4735 159.264C46.9906 159.264 47.443 159.37 47.8308 159.582C48.2186 159.791 48.5202 160.109 48.7356 160.537C48.9511 160.961 49.0588 161.498 49.0588 162.148V167H47.8855V162.227C47.8855 161.627 47.7297 161.16 47.4181 160.825C47.1066 160.487 46.679 160.318 46.1355 160.318C45.7609 160.318 45.4262 160.399 45.1312 160.562C44.8395 160.724 44.6092 160.961 44.4402 161.273C44.2711 161.584 44.1866 161.962 44.1866 162.406ZM51.685 169.864C51.4862 169.864 51.3088 169.847 51.1531 169.814C50.9973 169.784 50.8896 169.754 50.8299 169.724L51.1282 168.69C51.4132 168.763 51.6651 168.79 51.8839 168.77C52.1026 168.75 52.2965 168.652 52.4656 168.477C52.6379 168.304 52.7953 168.024 52.9379 167.636L53.1566 167.04L50.3327 159.364H51.6055L53.7134 165.449H53.793L55.9009 159.364H57.1737L53.9322 168.114C53.7863 168.508 53.6057 168.835 53.3903 169.093C53.1748 169.355 52.9246 169.549 52.6396 169.675C52.3578 169.801 52.0397 169.864 51.685 169.864ZM64.6683 167L61.8842 156.818H63.1371L65.2649 165.111H65.3643L67.532 156.818H68.924L71.0916 165.111H71.1911L73.3189 156.818H74.5717L71.7876 167H70.5149L68.2678 158.886H68.1882L65.9411 167H64.6683ZM75.9489 167V159.364H77.1222V167H75.9489ZM76.5455 158.091C76.3168 158.091 76.1196 158.013 75.9538 157.857C75.7914 157.701 75.7102 157.514 75.7102 157.295C75.7102 157.077 75.7914 156.889 75.9538 156.734C76.1196 156.578 76.3168 156.5 76.5455 156.5C76.7741 156.5 76.9697 156.578 77.1321 156.734C77.2978 156.889 77.3807 157.077 77.3807 157.295C77.3807 157.514 77.2978 157.701 77.1321 157.857C76.9697 158.013 76.7741 158.091 76.5455 158.091ZM80.4444 156.818V167H79.2711V156.818H80.4444ZM88.0025 161.074L86.9485 161.372C86.8822 161.196 86.7844 161.026 86.6552 160.86C86.5292 160.691 86.3569 160.552 86.1381 160.442C85.9194 160.333 85.6393 160.278 85.2979 160.278C84.8306 160.278 84.4412 160.386 84.1296 160.602C83.8214 160.814 83.6673 161.084 83.6673 161.412C83.6673 161.704 83.7733 161.934 83.9854 162.103C84.1976 162.272 84.529 162.413 84.9798 162.526L86.1133 162.804C86.796 162.97 87.3048 163.223 87.6396 163.565C87.9743 163.903 88.1417 164.339 88.1417 164.872C88.1417 165.31 88.0157 165.701 87.7638 166.045C87.5153 166.39 87.1673 166.662 86.7198 166.861C86.2724 167.06 85.752 167.159 85.1587 167.159C84.3799 167.159 83.7352 166.99 83.2248 166.652C82.7144 166.314 82.3912 165.82 82.2553 165.17L83.369 164.892C83.475 165.303 83.6755 165.611 83.9705 165.817C84.2688 166.022 84.6583 166.125 85.1388 166.125C85.6857 166.125 86.1199 166.009 86.4414 165.777C86.7662 165.542 86.9286 165.26 86.9286 164.932C86.9286 164.667 86.8358 164.445 86.6502 164.266C86.4646 164.083 86.1796 163.947 85.7951 163.858L84.5224 163.56C83.823 163.394 83.3093 163.137 82.9812 162.789C82.6564 162.438 82.494 161.999 82.494 161.472C82.494 161.041 82.6149 160.66 82.8569 160.328C83.1022 159.997 83.4353 159.737 83.8562 159.548C84.2804 159.359 84.761 159.264 85.2979 159.264C86.0536 159.264 86.6469 159.43 87.0778 159.761C87.512 160.093 87.8202 160.53 88.0025 161.074ZM93.0101 167.159C92.3207 167.159 91.7159 166.995 91.1955 166.667C90.6784 166.339 90.2741 165.88 89.9824 165.29C89.6941 164.7 89.5499 164.01 89.5499 163.222C89.5499 162.426 89.6941 161.732 89.9824 161.138C90.2741 160.545 90.6784 160.085 91.1955 159.756C91.7159 159.428 92.3207 159.264 93.0101 159.264C93.6995 159.264 94.3027 159.428 94.8198 159.756C95.3401 160.085 95.7445 160.545 96.0328 161.138C96.3245 161.732 96.4703 162.426 96.4703 163.222C96.4703 164.01 96.3245 164.7 96.0328 165.29C95.7445 165.88 95.3401 166.339 94.8198 166.667C94.3027 166.995 93.6995 167.159 93.0101 167.159ZM93.0101 166.105C93.5338 166.105 93.9647 165.971 94.3027 165.702C94.6408 165.434 94.891 165.081 95.0534 164.643C95.2159 164.206 95.2971 163.732 95.2971 163.222C95.2971 162.711 95.2159 162.236 95.0534 161.795C94.891 161.354 94.6408 160.998 94.3027 160.726C93.9647 160.454 93.5338 160.318 93.0101 160.318C92.4864 160.318 92.0556 160.454 91.7175 160.726C91.3794 160.998 91.1292 161.354 90.9668 161.795C90.8044 162.236 90.7232 162.711 90.7232 163.222C90.7232 163.732 90.8044 164.206 90.9668 164.643C91.1292 165.081 91.3794 165.434 91.7175 165.702C92.0556 165.971 92.4864 166.105 93.0101 166.105ZM99.4347 162.406V167H98.2614V159.364H99.3949V160.557H99.4943C99.6733 160.169 99.9451 159.857 100.31 159.622C100.674 159.384 101.145 159.264 101.722 159.264C102.239 159.264 102.691 159.37 103.079 159.582C103.467 159.791 103.768 160.109 103.984 160.537C104.199 160.961 104.307 161.498 104.307 162.148V167H103.134V162.227C103.134 161.627 102.978 161.16 102.666 160.825C102.355 160.487 101.927 160.318 101.384 160.318C101.009 160.318 100.674 160.399 100.379 160.562C100.088 160.724 99.8572 160.961 99.6882 161.273C99.5192 161.584 99.4347 161.962 99.4347 162.406Z" fill="#344051"/>
<path d="M136.375 167.139C135.626 167.139 134.988 166.935 134.461 166.528C133.934 166.117 133.531 165.522 133.253 164.743C132.974 163.961 132.835 163.016 132.835 161.909C132.835 160.809 132.974 159.869 133.253 159.09C133.535 158.308 133.939 157.711 134.466 157.3C134.996 156.886 135.633 156.679 136.375 156.679C137.117 156.679 137.752 156.886 138.279 157.3C138.809 157.711 139.214 158.308 139.492 159.09C139.774 159.869 139.915 160.809 139.915 161.909C139.915 163.016 139.776 163.961 139.497 164.743C139.219 165.522 138.816 166.117 138.289 166.528C137.762 166.935 137.124 167.139 136.375 167.139ZM136.375 166.045C137.117 166.045 137.694 165.687 138.105 164.972C138.516 164.256 138.722 163.235 138.722 161.909C138.722 161.027 138.627 160.277 138.438 159.657C138.253 159.037 137.984 158.565 137.633 158.24C137.285 157.915 136.866 157.753 136.375 157.753C135.639 157.753 135.064 158.116 134.65 158.842C134.236 159.564 134.028 160.587 134.028 161.909C134.028 162.791 134.121 163.54 134.307 164.156C134.492 164.773 134.759 165.242 135.107 165.563C135.459 165.885 135.881 166.045 136.375 166.045ZM144.986 167.139C144.402 167.139 143.877 167.023 143.41 166.791C142.942 166.559 142.568 166.241 142.286 165.837C142.004 165.432 141.85 164.972 141.824 164.455H143.017C143.063 164.915 143.272 165.296 143.643 165.598C144.018 165.896 144.465 166.045 144.986 166.045C145.403 166.045 145.775 165.948 146.099 165.752C146.428 165.557 146.684 165.288 146.87 164.947C147.059 164.602 147.153 164.213 147.153 163.778C147.153 163.334 147.056 162.938 146.86 162.59C146.668 162.239 146.403 161.962 146.065 161.76C145.727 161.558 145.34 161.455 144.906 161.452C144.595 161.448 144.275 161.496 143.947 161.596C143.619 161.692 143.348 161.816 143.136 161.969L141.983 161.83L142.599 156.818H147.889V157.912H143.634L143.276 160.915H143.335C143.544 160.749 143.806 160.612 144.121 160.502C144.436 160.393 144.764 160.338 145.105 160.338C145.728 160.338 146.283 160.487 146.771 160.786C147.261 161.08 147.646 161.485 147.924 161.999C148.206 162.512 148.347 163.099 148.347 163.759C148.347 164.408 148.201 164.988 147.909 165.499C147.621 166.006 147.223 166.407 146.716 166.702C146.209 166.993 145.632 167.139 144.986 167.139ZM153.941 156.341L150.66 168.531H149.586L152.867 156.341H153.941ZM155.312 167V166.105L158.673 162.426C159.067 161.995 159.392 161.621 159.647 161.303C159.902 160.981 160.091 160.679 160.214 160.398C160.34 160.113 160.403 159.814 160.403 159.503C160.403 159.145 160.317 158.835 160.144 158.573C159.975 158.311 159.743 158.109 159.448 157.967C159.153 157.824 158.822 157.753 158.454 157.753C158.063 157.753 157.721 157.834 157.43 157.996C157.141 158.156 156.918 158.379 156.759 158.668C156.603 158.956 156.525 159.294 156.525 159.682H155.352C155.352 159.085 155.489 158.562 155.764 158.111C156.039 157.66 156.414 157.309 156.888 157.057C157.365 156.805 157.9 156.679 158.494 156.679C159.09 156.679 159.619 156.805 160.08 157.057C160.54 157.309 160.902 157.648 161.163 158.076C161.425 158.504 161.556 158.979 161.556 159.503C161.556 159.877 161.488 160.244 161.352 160.602C161.22 160.956 160.988 161.352 160.656 161.79C160.328 162.224 159.872 162.754 159.289 163.381L157.002 165.827V165.906H161.735V167H155.312ZM167.229 167.139C166.572 167.139 165.987 167.027 165.474 166.801C164.963 166.576 164.557 166.263 164.256 165.862C163.957 165.457 163.795 164.988 163.768 164.455H165.021C165.048 164.783 165.161 165.066 165.359 165.305C165.558 165.54 165.818 165.722 166.14 165.852C166.461 165.981 166.818 166.045 167.209 166.045C167.646 166.045 168.034 165.969 168.372 165.817C168.71 165.664 168.975 165.452 169.168 165.18C169.36 164.909 169.456 164.594 169.456 164.236C169.456 163.861 169.363 163.531 169.178 163.246C168.992 162.958 168.72 162.733 168.362 162.57C168.004 162.408 167.567 162.327 167.05 162.327H166.234V161.233H167.05C167.454 161.233 167.809 161.16 168.114 161.014C168.422 160.868 168.662 160.663 168.835 160.398C169.01 160.133 169.098 159.821 169.098 159.463C169.098 159.118 169.022 158.818 168.869 158.563C168.717 158.308 168.501 158.109 168.223 157.967C167.948 157.824 167.623 157.753 167.249 157.753C166.897 157.753 166.566 157.817 166.254 157.947C165.946 158.073 165.694 158.257 165.499 158.499C165.303 158.737 165.197 159.026 165.18 159.364H163.987C164.007 158.83 164.168 158.363 164.469 157.962C164.771 157.557 165.165 157.242 165.653 157.017C166.143 156.792 166.682 156.679 167.268 156.679C167.898 156.679 168.438 156.807 168.889 157.062C169.34 157.314 169.686 157.647 169.928 158.061C170.17 158.475 170.291 158.923 170.291 159.403C170.291 159.977 170.14 160.466 169.839 160.87C169.54 161.274 169.134 161.554 168.621 161.71V161.79C169.264 161.896 169.766 162.169 170.127 162.61C170.488 163.048 170.669 163.589 170.669 164.236C170.669 164.789 170.518 165.286 170.217 165.727C169.918 166.165 169.511 166.509 168.994 166.761C168.477 167.013 167.888 167.139 167.229 167.139Z" fill="#344051"/>
<path d="M49.7167 79H21.2832C19.48 79 18 77.5538 18 75.7918V55.2082C18 53.4462 19.48 52 21.2832 52H49.7167C51.5199 52 52.9999 53.4462 52.9999 55.2082V75.7918C53.0104 77.5639 51.5303 79 49.7167 79Z" fill="#FFC34C"/>
<path d="M18 62H30" stroke="#996600"/>
<path d="M41 62H53" stroke="#996600"/>
<path d="M18 69H30" stroke="#996600"/>
<path d="M39 52L39 61" stroke="#996600"/>
<path d="M39 70L39 79" stroke="#996600"/>
<path d="M32 52L32 61" stroke="#996600"/>
<path d="M32 70L32 79" stroke="#996600"/>
<path d="M41 69H53" stroke="#996600"/>
<rect x="29.5" y="60.5" width="12" height="10" rx="0.5" stroke="#996600"/>
<path fill-rule="evenodd" clip-rule="evenodd" d="M263.917 168.43H260.484L257.91 158.321C257.788 157.856 257.528 157.444 257.147 157.251C256.194 156.764 255.145 156.376 254 156.181V155.791H259.53C260.293 155.791 260.866 156.376 260.961 157.055L262.297 164.348L265.728 155.791H269.066L263.917 168.43ZM270.974 168.43H267.732L270.401 155.791H273.643L270.974 168.43ZM277.838 159.293C277.933 158.612 278.506 158.223 279.174 158.223C280.223 158.125 281.366 158.321 282.32 158.806L282.893 156.085C281.939 155.695 280.889 155.5 279.937 155.5C276.79 155.5 274.5 157.251 274.5 159.68C274.5 161.529 276.122 162.499 277.267 163.084C278.506 163.667 278.983 164.056 278.887 164.639C278.887 165.514 277.933 165.903 276.981 165.903C275.836 165.903 274.691 165.611 273.643 165.125L273.071 167.847C274.216 168.333 275.454 168.528 276.599 168.528C280.128 168.624 282.32 166.875 282.32 164.25C282.32 160.944 277.838 160.75 277.838 159.293ZM293.667 168.43L291.092 155.791H288.327C287.755 155.791 287.182 156.181 286.992 156.764L282.225 168.43H285.562L286.228 166.584H290.329L290.711 168.43H293.667ZM288.804 159.195L289.757 163.959H287.087L288.804 159.195Z" fill="#172B85"/>
</g>
<defs>
<filter id="filter0_f_3092_294" x="-208" y="-170" width="744" height="557" filterUnits="userSpaceOnUse" color-interpolation-filters="sRGB">
<feFlood flood-opacity="0" result="BackgroundImageFix"/>
<feBlend mode="normal" in="SourceGraphic" in2="BackgroundImageFix" result="shape"/>
<feGaussianBlur stdDeviation="77" result="effect1_foregroundBlur_3092_294"/>
</filter>
<linearGradient id="paint0_linear_3092_294" x1="-54" y1="233" x2="413.96" y2="85.1706" gradientUnits="userSpaceOnUse">
<stop stop-color="#1975FF"/>
<stop offset="1" stop-color="#33A9FF"/>
</linearGradient>
<clipPath id="clip0_3092_294">
<rect width="320" height="190" rx="18" fill="white"/>
</clipPath>
<clipPath id="clip1_3092_294">
<rect width="320" height="190" fill="white"/>
</clipPath>
</defs>
</svg>
