<svg width="24" height="23" viewBox="0 0 24 23" fill="none" xmlns="http://www.w3.org/2000/svg">
<path d="M11.3446 0.738688C11.6126 0.198106 12.3868 0.198107 12.6547 0.738688L15.694 6.87035C15.8004 7.08501 16.0061 7.2338 16.244 7.26822L23.0401 8.25148C23.6393 8.33817 23.8785 9.07129 23.4449 9.49207L18.5273 14.2649C18.3551 14.432 18.2765 14.6727 18.3172 14.9087L19.4781 21.648C19.5804 22.2422 18.9541 22.6953 18.4182 22.4148L12.3396 19.2329C12.1268 19.1215 11.8726 19.1215 11.6597 19.2329L5.58116 22.4148C5.04526 22.6953 4.41892 22.2422 4.52126 21.648L5.68217 14.9087C5.72281 14.6727 5.64425 14.432 5.47209 14.2649L0.554403 9.49207C0.120849 9.07129 0.36009 8.33817 0.959248 8.25148L7.75532 7.26822C7.99325 7.2338 8.19892 7.08501 8.30533 6.87035L11.3446 0.738688Z" fill="#141C24"/>
</svg>
