<svg width="25" height="24" viewBox="0 0 25 24" fill="none" xmlns="http://www.w3.org/2000/svg">
<rect x="2" y="1.5" width="21" height="21" rx="6" fill="#97A1AF"/>
<rect x="2" y="1.5" width="21" height="21" rx="6" fill="#97A1AF"/>
<rect x="2" y="1.5" width="21" height="21" rx="6" fill="#97A1AF"/>
<path d="M17.75 7.875C17.75 8.49632 17.2463 9 16.625 9C16.0037 9 15.5 8.49632 15.5 7.875C15.5 7.25368 16.0037 6.75 16.625 6.75C17.2463 6.75 17.75 7.25368 17.75 7.875Z" fill="white"/>
<path fill-rule="evenodd" clip-rule="evenodd" d="M12.5 15.75C14.5711 15.75 16.25 14.0711 16.25 12C16.25 9.92893 14.5711 8.25 12.5 8.25C10.4289 8.25 8.75 9.92893 8.75 12C8.75 14.0711 10.4289 15.75 12.5 15.75ZM12.5 14.25C13.7426 14.25 14.75 13.2426 14.75 12C14.75 10.7574 13.7426 9.75 12.5 9.75C11.2574 9.75 10.25 10.7574 10.25 12C10.25 13.2426 11.2574 14.25 12.5 14.25Z" fill="white"/>
<path fill-rule="evenodd" clip-rule="evenodd" d="M5 11.7C5 9.17976 5 7.91965 5.49047 6.95704C5.9219 6.11031 6.61031 5.4219 7.45704 4.99047C8.41965 4.5 9.67976 4.5 12.2 4.5H12.8C15.3202 4.5 16.5804 4.5 17.543 4.99047C18.3897 5.4219 19.0781 6.11031 19.5095 6.95704C20 7.91965 20 9.17976 20 11.7V12.3C20 14.8202 20 16.0804 19.5095 17.043C19.0781 17.8897 18.3897 18.5781 17.543 19.0095C16.5804 19.5 15.3202 19.5 12.8 19.5H12.2C9.67976 19.5 8.41965 19.5 7.45704 19.0095C6.61031 18.5781 5.9219 17.8897 5.49047 17.043C5 16.0804 5 14.8202 5 12.3V11.7ZM12.2 6H12.8C14.0849 6 14.9583 6.00117 15.6334 6.05633C16.2911 6.11006 16.6274 6.20745 16.862 6.32698C17.4265 6.6146 17.8854 7.07354 18.173 7.63803C18.2926 7.87263 18.3899 8.20893 18.4437 8.86656C18.4988 9.54169 18.5 10.4151 18.5 11.7V12.3C18.5 13.5849 18.4988 14.4583 18.4437 15.1334C18.3899 15.7911 18.2926 16.1274 18.173 16.362C17.8854 16.9265 17.4265 17.3854 16.862 17.673C16.6274 17.7926 16.2911 17.8899 15.6334 17.9437C14.9583 17.9988 14.0849 18 12.8 18H12.2C10.9151 18 10.0417 17.9988 9.36656 17.9437C8.70893 17.8899 8.37263 17.7926 8.13803 17.673C7.57354 17.3854 7.1146 16.9265 6.82698 16.362C6.70745 16.1274 6.61006 15.7911 6.55633 15.1334C6.50117 14.4583 6.5 13.5849 6.5 12.3V11.7C6.5 10.4151 6.50117 9.54169 6.55633 8.86656C6.61006 8.20893 6.70745 7.87263 6.82698 7.63803C7.1146 7.07354 7.57354 6.6146 8.13803 6.32698C8.37263 6.20745 8.70893 6.11006 9.36656 6.05633C10.0417 6.00117 10.9151 6 12.2 6Z" fill="white"/>
</svg>
