<svg width="25" height="24" viewBox="0 0 25 24" fill="none" xmlns="http://www.w3.org/2000/svg">
<rect x="2" y="1.5" width="21" height="21" rx="10.5" fill="#97A1AF"/>
<path d="M9.96392 7.26911C9.96392 7.97002 9.35639 8.53822 8.60696 8.53822C7.85753 8.53822 7.25 7.97002 7.25 7.26911C7.25 6.5682 7.85753 6 8.60696 6C9.35639 6 9.96392 6.5682 9.96392 7.26911Z" fill="white"/>
<path d="M7.43557 9.47107H9.75515V16.5H7.43557V9.47107Z" fill="white"/>
<path d="M13.4897 9.47107H11.1701V16.5H13.4897C13.4897 16.5 13.4897 14.2872 13.4897 12.9036C13.4897 12.0732 13.7732 11.2392 14.9046 11.2392C16.1833 11.2392 16.1756 12.3259 16.1696 13.1678C16.1618 14.2683 16.1804 15.3914 16.1804 16.5H18.5V12.7903C18.4804 10.4215 17.8631 9.33006 15.8325 9.33006C14.6265 9.33006 13.879 9.87754 13.4897 10.3729V9.47107Z" fill="white"/>
</svg>
