<svg width="33" height="32" viewBox="0 0 33 32" fill="none" xmlns="http://www.w3.org/2000/svg">
<path d="M15.1551 24.589C15.1551 28.682 11.8371 32 7.74405 32C3.65104 32 0.333008 28.682 0.333008 24.589C0.333008 20.496 3.65104 17.1779 7.74405 17.1779C11.8371 17.1779 15.1551 20.496 15.1551 24.589Z" fill="url(#paint0_linear_3092_1775)"/>
<path d="M32.333 7.41104C32.333 11.504 29.015 14.8221 24.922 14.8221C20.829 14.8221 17.5109 11.504 17.5109 7.41104C17.5109 3.31804 20.829 0 24.922 0C29.015 0 32.333 3.31804 32.333 7.41104Z" fill="url(#paint1_linear_3092_1775)"/>
<path d="M15.1551 7.41104C15.1551 11.504 11.8371 14.8221 7.74405 14.8221C3.65104 14.8221 0.333008 11.504 0.333008 7.41104C0.333008 3.31804 3.65104 0 7.74405 0C11.8371 0 15.1551 3.31804 15.1551 7.41104Z" fill="url(#paint2_linear_3092_1775)"/>
<path d="M32.333 24.589C32.333 28.682 29.015 32 24.922 32C20.829 32 17.5109 28.682 17.5109 24.589C17.5109 20.496 20.829 17.1779 24.922 17.1779C29.015 17.1779 32.333 20.496 32.333 24.589Z" fill="url(#paint3_linear_3092_1775)"/>
<defs>
<linearGradient id="paint0_linear_3092_1775" x1="0.333008" y1="32" x2="36.9155" y2="25.4001" gradientUnits="userSpaceOnUse">
<stop stop-color="#1975FF"/>
<stop offset="1" stop-color="#33A9FF"/>
</linearGradient>
<linearGradient id="paint1_linear_3092_1775" x1="0.333008" y1="32" x2="36.9155" y2="25.4001" gradientUnits="userSpaceOnUse">
<stop stop-color="#1975FF"/>
<stop offset="1" stop-color="#33A9FF"/>
</linearGradient>
<linearGradient id="paint2_linear_3092_1775" x1="0.333008" y1="32" x2="36.9155" y2="25.4001" gradientUnits="userSpaceOnUse">
<stop stop-color="#1975FF"/>
<stop offset="1" stop-color="#33A9FF"/>
</linearGradient>
<linearGradient id="paint3_linear_3092_1775" x1="0.333008" y1="32" x2="36.9155" y2="25.4001" gradientUnits="userSpaceOnUse">
<stop stop-color="#1975FF"/>
<stop offset="1" stop-color="#33A9FF"/>
</linearGradient>
</defs>
</svg>
