<svg width="33" height="32" viewBox="0 0 33 32" fill="none" xmlns="http://www.w3.org/2000/svg">
<path d="M32.333 0C32.333 4.10912 30.6473 8.04994 27.6467 10.9555C24.6461 13.8611 20.5765 15.4934 16.333 15.4934C12.0895 15.4934 8.01988 13.8611 5.0193 10.9555C2.01872 8.04994 0.333008 4.10912 0.333008 1.68264e-06L32.333 0Z" fill="url(#paint0_linear_3092_1779)"/>
<path d="M32.333 16.5066C32.333 20.6157 30.6473 24.5565 27.6467 27.4621C24.6461 30.3677 20.5765 32 16.333 32C12.0895 32 8.01988 30.3677 5.0193 27.4621C2.01872 24.5565 0.333008 20.6157 0.333008 16.5066L32.333 16.5066Z" fill="url(#paint1_linear_3092_1779)"/>
<defs>
<linearGradient id="paint0_linear_3092_1779" x1="0.333008" y1="32" x2="36.9155" y2="25.4001" gradientUnits="userSpaceOnUse">
<stop stop-color="#E31C40"/>
<stop offset="1" stop-color="#F64C4C"/>
</linearGradient>
<linearGradient id="paint1_linear_3092_1779" x1="0.333008" y1="32" x2="36.9155" y2="25.4001" gradientUnits="userSpaceOnUse">
<stop stop-color="#E31C40"/>
<stop offset="1" stop-color="#F64C4C"/>
</linearGradient>
</defs>
</svg>
