<svg width="16" height="16" viewBox="0 0 16 16" fill="none" xmlns="http://www.w3.org/2000/svg">
<path d="M8.7023 13.1309C10.0868 13.8277 11.7094 14.3359 13.6044 14.5681C14.1777 14.6383 14.6663 14.1779 14.6663 13.6002V12.1143C14.6663 11.6554 14.354 11.2554 13.9089 11.1441L11.8823 10.6375C11.5415 10.5523 11.181 10.6521 10.9327 10.9005L8.7023 13.1309ZM8.7023 13.1309C6.10592 11.8241 4.34722 9.85432 3.20065 7.79919M3.20065 7.79919C2.14658 5.90987 1.60985 3.94843 1.41522 2.36377C1.3463 1.80265 1.80155 1.3335 2.3669 1.3335H3.84654C4.32322 1.3335 4.73363 1.66996 4.82712 2.13738L5.39472 4.97537C5.46029 5.30323 5.35767 5.64217 5.12124 5.87859L3.20065 7.79919Z" stroke="#97A1AF" stroke-width="1.5"/>
</svg>
