<svg width="104" height="24" viewBox="0 0 104 24" fill="none" xmlns="http://www.w3.org/2000/svg">
<path d="M0.163086 22.6666V1.33976H13.4977V3.8606H2.99902V9.70434H12.7816V12.2252H2.99902V20.1458H13.4977V22.6666H0.163086Z" fill="#141C24"/>
<path d="M19.1696 22.6666H16.4769V0.380127H19.1696V22.6666Z" fill="#141C24"/>
<path d="M25.8727 22.6666H23.18V6.66789H25.8727V22.6666ZM26.0589 3.9895H22.9938V1.19653H26.0589V3.9895Z" fill="#141C24"/>
<path d="M34.667 22.9817C33.1965 22.9817 32.0507 22.5663 31.2295 21.7356C30.4083 20.8953 29.9977 19.5728 29.9977 17.7681V8.90226H28.1787V6.66789H29.9977V2.07023H32.6904V6.66789H37.6462V8.90226H32.6904V16.5077C32.6904 17.3194 32.7048 17.9448 32.7334 18.384C32.762 18.8233 32.8719 19.2339 33.0628 19.6158C33.2252 19.95 33.4877 20.203 33.8506 20.3749C34.2134 20.5372 34.7052 20.6184 35.3258 20.6184C35.7651 20.6184 36.19 20.5563 36.6006 20.4322C37.0112 20.2985 37.3072 20.1887 37.4886 20.1028H37.6462V22.5234C37.1401 22.6666 36.6245 22.7764 36.0993 22.8528C35.5837 22.9387 35.1062 22.9817 34.667 22.9817Z" fill="#141C24"/>
<path d="M46.598 23.039C44.0485 23.039 42.0672 22.3228 40.654 20.8905C39.2503 19.4487 38.5485 17.4053 38.5485 14.7603C38.5485 12.1536 39.2312 10.0815 40.5967 8.54419C41.9621 6.99731 43.7477 6.22388 45.9534 6.22388C46.9465 6.22388 47.825 6.36711 48.5889 6.65356C49.3528 6.94002 50.0212 7.38881 50.5941 7.99992C51.167 8.61103 51.6062 9.36059 51.9118 10.2486C52.2173 11.1271 52.3701 12.2061 52.3701 13.4856V14.9465H41.2842C41.2842 16.8085 41.7521 18.2313 42.6878 19.2148C43.6236 20.1983 44.9174 20.69 46.5693 20.69C47.1613 20.69 47.739 20.6232 48.3024 20.4895C48.8753 20.3558 49.3909 20.1839 49.8493 19.9739C50.3363 19.7543 50.7468 19.5442 51.0811 19.3437C51.4153 19.1336 51.6922 18.9379 51.9118 18.7564H52.0693V21.6926C51.7542 21.8168 51.3627 21.9743 50.8949 22.1653C50.427 22.3467 50.0068 22.4899 49.6344 22.595C49.1093 22.7382 48.6318 22.848 48.2021 22.9244C47.782 23.0008 47.2473 23.039 46.598 23.039ZM49.749 12.884C49.7299 12.1583 49.644 11.5329 49.4912 11.0077C49.3384 10.4826 49.1188 10.0385 48.8324 9.6757C48.5173 9.27466 48.1114 8.9691 47.6149 8.75903C47.1279 8.54896 46.5216 8.44393 45.7959 8.44393C45.0798 8.44393 44.4686 8.55374 43.9626 8.77336C43.466 8.98343 43.0125 9.29375 42.6019 9.70434C42.2008 10.1245 41.8953 10.5924 41.6852 11.108C41.4752 11.6141 41.3415 12.2061 41.2842 12.884H49.749Z" fill="#141C24"/>
<path d="M70.0589 22.6666H66.8076L61.6084 14.1301L56.3232 22.6666H53.2581L60.0329 11.996L53.4587 1.33976H56.6956L61.7946 9.71867L66.9652 1.33976H70.0446L63.3701 11.8528L70.0589 22.6666Z" fill="#141C24"/>
<path d="M78.4951 23.0247C77.397 23.0247 76.3896 22.8576 75.473 22.5234C74.5563 22.1796 73.7685 21.664 73.1097 20.9765C72.4508 20.289 71.94 19.4248 71.5771 18.384C71.2143 17.3337 71.0329 16.1019 71.0329 14.6887C71.0329 13.2851 71.2191 12.0724 71.5915 11.0507C71.9734 10.029 72.4795 9.16962 73.1097 8.47257C73.7399 7.77553 74.5229 7.2408 75.4587 6.86841C76.404 6.48646 77.4161 6.29549 78.4951 6.29549C79.3736 6.29549 80.2186 6.41962 81.0303 6.66789C81.8514 6.91615 82.5819 7.20261 83.2217 7.52726V10.5494H83.0641C82.8732 10.3871 82.6249 10.2009 82.3193 9.9908C82.0233 9.78073 81.6605 9.56589 81.2308 9.34627C80.8584 9.1553 80.4192 8.9882 79.9131 8.84497C79.407 8.70174 78.92 8.63013 78.4521 8.63013C77.058 8.63013 75.9361 9.16007 75.0863 10.22C74.246 11.2703 73.8258 12.7599 73.8258 14.6887C73.8258 16.5793 74.2317 18.0546 75.0433 19.1145C75.8645 20.1648 77.0008 20.69 78.4521 20.69C79.3306 20.69 80.1661 20.5086 80.9587 20.1458C81.7512 19.7829 82.453 19.315 83.0641 18.7421H83.2217V21.7642C82.9543 21.8884 82.6201 22.0411 82.2191 22.2226C81.818 22.3944 81.4552 22.5234 81.1305 22.6093C80.6722 22.743 80.2616 22.8432 79.8988 22.9101C79.5359 22.9865 79.068 23.0247 78.4951 23.0247Z" fill="#141C24"/>
<path d="M92.6318 23.039C90.0824 23.039 88.101 22.3228 86.6878 20.8905C85.2842 19.4487 84.5824 17.4053 84.5824 14.7603C84.5824 12.1536 85.2651 10.0815 86.6305 8.54419C87.996 6.99731 89.7816 6.22388 91.9873 6.22388C92.9804 6.22388 93.8588 6.36711 94.6227 6.65356C95.3866 6.94002 96.055 7.38881 96.6279 7.99992C97.2008 8.61103 97.6401 9.36059 97.9456 10.2486C98.2512 11.1271 98.404 12.2061 98.404 13.4856V14.9465H87.318C87.318 16.8085 87.7859 18.2313 88.7217 19.2148C89.6574 20.1983 90.9513 20.69 92.6032 20.69C93.1952 20.69 93.7729 20.6232 94.3363 20.4895C94.9092 20.3558 95.4248 20.1839 95.8831 19.9739C96.3701 19.7543 96.7807 19.5442 97.1149 19.3437C97.4491 19.1336 97.726 18.9379 97.9456 18.7564H98.1032V21.6926C97.7881 21.8168 97.3966 21.9743 96.9287 22.1653C96.4608 22.3467 96.0407 22.4899 95.6683 22.595C95.1431 22.7382 94.6657 22.848 94.236 22.9244C93.8159 23.0008 93.2811 23.039 92.6318 23.039ZM95.7829 12.884C95.7638 12.1583 95.6778 11.5329 95.5251 11.0077C95.3723 10.4826 95.1527 10.0385 94.8662 9.6757C94.5511 9.27466 94.1453 8.9691 93.6488 8.75903C93.1618 8.54896 92.5554 8.44393 91.8298 8.44393C91.1136 8.44393 90.5025 8.55374 89.9964 8.77336C89.4999 8.98343 89.0463 9.29375 88.6357 9.70434C88.2347 10.1245 87.9291 10.5924 87.7191 11.108C87.509 11.6141 87.3753 12.2061 87.318 12.884H95.7829Z" fill="#141C24"/>
<path d="M103.875 22.6666H101.183V0.380127H103.875V22.6666Z" fill="#141C24"/>
</svg>
