<svg width="174" height="28" viewBox="0 0 174 28" fill="none" xmlns="http://www.w3.org/2000/svg">
<path d="M12.6452 5.93758C12.5341 4.95147 12.0757 4.18758 11.2702 3.64591C10.4646 3.0973 9.45074 2.823 8.22852 2.823C7.35352 2.823 6.59657 2.96189 5.95768 3.23966C5.31879 3.5105 4.82227 3.8855 4.4681 4.36467C4.12088 4.83689 3.94727 5.37508 3.94727 5.97925C3.94727 6.48619 4.06532 6.92369 4.30143 7.29175C4.54449 7.6598 4.86046 7.96883 5.24935 8.21883C5.64518 8.46189 6.06879 8.66675 6.52018 8.83342C6.97157 8.99314 7.4056 9.12508 7.82227 9.22925L9.9056 9.77092C10.5862 9.93758 11.2841 10.1633 11.9993 10.448C12.7146 10.7327 13.3778 11.1077 13.9889 11.573C14.6 12.0383 15.0931 12.6147 15.4681 13.3022C15.85 13.9897 16.041 14.8126 16.041 15.7709C16.041 16.9792 15.7285 18.0522 15.1035 18.9897C14.4855 19.9272 13.5862 20.6667 12.4056 21.2084C11.232 21.7501 9.81185 22.0209 8.14518 22.0209C6.54796 22.0209 5.16602 21.7674 3.99935 21.2605C2.83268 20.7536 1.91949 20.0348 1.25977 19.1042C0.600043 18.1667 0.23546 17.0556 0.166016 15.7709H3.39518C3.45768 16.5417 3.70768 17.1841 4.14518 17.698C4.58963 18.2049 5.1556 18.5834 5.8431 18.8334C6.53754 19.0765 7.29796 19.198 8.12435 19.198C9.03407 19.198 9.8431 19.0556 10.5514 18.7709C11.2667 18.4792 11.8292 18.0765 12.2389 17.5626C12.6487 17.0417 12.8535 16.4341 12.8535 15.7397C12.8535 15.1077 12.673 14.5904 12.3118 14.1876C11.9577 13.7848 11.475 13.4515 10.8639 13.1876C10.2598 12.9237 9.57574 12.6911 8.81185 12.4897L6.29102 11.8022C4.58268 11.3369 3.22852 10.6529 2.22852 9.75008C1.23546 8.8473 0.738932 7.65286 0.738932 6.16675C0.738932 4.93758 1.07227 3.86466 1.73893 2.948C2.4056 2.03133 3.30838 1.31953 4.44727 0.812582C5.58615 0.298693 6.87088 0.041748 8.30143 0.041748C9.74588 0.041748 11.0202 0.295221 12.1244 0.802165C13.2355 1.30911 14.1105 2.00703 14.7494 2.89591C15.3882 3.77786 15.7216 4.79175 15.7493 5.93758H12.6452Z" fill="#141C24"/>
<path d="M19.6374 27.6667V5.66675H22.679V8.2605H22.9395C23.12 7.92717 23.3804 7.54175 23.7207 7.10425C24.061 6.66675 24.5332 6.2848 25.1374 5.95842C25.7415 5.62508 26.5401 5.45842 27.5332 5.45842C28.8249 5.45842 29.9776 5.7848 30.9915 6.43758C32.0054 7.09036 32.8006 8.03133 33.377 9.2605C33.9603 10.4897 34.252 11.9688 34.252 13.698C34.252 15.4272 33.9638 16.9098 33.3874 18.1459C32.811 19.3751 32.0193 20.323 31.0124 20.9897C30.0054 21.6494 28.8561 21.9792 27.5645 21.9792C26.5922 21.9792 25.7971 21.8161 25.179 21.4897C24.5679 21.1633 24.0888 20.7813 23.7415 20.3438C23.3943 19.9063 23.127 19.5174 22.9395 19.1772H22.752V27.6667H19.6374ZM22.6895 13.6667C22.6895 14.7917 22.8526 15.7779 23.179 16.6251C23.5054 17.4723 23.9776 18.1355 24.5957 18.6147C25.2138 19.0869 25.9707 19.323 26.8665 19.323C27.7971 19.323 28.5749 19.0765 29.1999 18.5834C29.8249 18.0834 30.2971 17.4063 30.6165 16.5522C30.9429 15.698 31.1061 14.7362 31.1061 13.6667C31.1061 12.6112 30.9464 11.6633 30.627 10.823C30.3145 9.98272 29.8422 9.31953 29.2103 8.83342C28.5853 8.3473 27.804 8.10425 26.8665 8.10425C25.9638 8.10425 25.1999 8.33689 24.5749 8.80217C23.9568 9.26744 23.4881 9.91675 23.1686 10.7501C22.8492 11.5834 22.6895 12.5556 22.6895 13.6667Z" fill="#141C24"/>
<path d="M44.6374 21.9897C43.061 21.9897 41.7033 21.6529 40.5645 20.9792C39.4325 20.2987 38.5575 19.3438 37.9395 18.1147C37.3283 16.8786 37.0228 15.4306 37.0228 13.7709C37.0228 12.132 37.3283 10.6876 37.9395 9.43758C38.5575 8.18758 39.4186 7.21189 40.5228 6.5105C41.6339 5.80911 42.9325 5.45842 44.4186 5.45842C45.3214 5.45842 46.1964 5.60772 47.0436 5.90633C47.8908 6.20494 48.6513 6.67369 49.3249 7.31258C49.9985 7.95147 50.5297 8.78133 50.9186 9.80217C51.3075 10.8161 51.502 12.0487 51.502 13.5001V14.6042H38.7832V12.2709H48.4499C48.4499 11.4515 48.2832 10.7258 47.9499 10.0938C47.6165 9.45494 47.1478 8.95147 46.5436 8.58342C45.9464 8.21536 45.245 8.03133 44.4395 8.03133C43.5645 8.03133 42.8006 8.24661 42.1478 8.67717C41.502 9.10078 41.002 9.65633 40.6478 10.3438C40.3006 11.0244 40.127 11.764 40.127 12.5626V14.3855C40.127 15.4549 40.3145 16.3647 40.6895 17.1147C41.0714 17.8647 41.6026 18.4376 42.2832 18.8334C42.9638 19.2223 43.7589 19.4167 44.6686 19.4167C45.2589 19.4167 45.7971 19.3334 46.2832 19.1667C46.7693 18.9931 47.1895 18.7362 47.5436 18.3959C47.8978 18.0556 48.1686 17.6355 48.3561 17.1355L51.304 17.6667C51.0679 18.5348 50.6443 19.2952 50.0332 19.948C49.429 20.5938 48.6686 21.0973 47.752 21.4584C46.8422 21.8126 45.804 21.9897 44.6374 21.9897Z" fill="#141C24"/>
<path d="M61.6973 21.9897C60.1487 21.9897 58.8153 21.639 57.6973 20.9376C56.5862 20.2292 55.732 19.2536 55.1348 18.0105C54.5375 16.7674 54.2389 15.3438 54.2389 13.7397C54.2389 12.1147 54.5445 10.6806 55.1556 9.43758C55.7667 8.18758 56.6278 7.21189 57.7389 6.5105C58.85 5.80911 60.1591 5.45842 61.666 5.45842C62.8813 5.45842 63.9646 5.68411 64.916 6.1355C65.8674 6.57994 66.6348 7.20494 67.2181 8.0105C67.8084 8.81605 68.1591 9.75703 68.2702 10.8334H65.2389C65.0723 10.0834 64.6903 9.43758 64.0931 8.89591C63.5028 8.35425 62.7112 8.08342 61.7181 8.08342C60.85 8.08342 60.0896 8.31258 59.4369 8.77092C58.791 9.2223 58.2875 9.86814 57.9264 10.7084C57.5653 11.5417 57.3848 12.5279 57.3848 13.6667C57.3848 14.8334 57.5619 15.8404 57.916 16.6876C58.2702 17.5348 58.7702 18.1911 59.416 18.6563C60.0688 19.1216 60.8362 19.3542 61.7181 19.3542C62.3084 19.3542 62.8431 19.2466 63.3223 19.0313C63.8084 18.8091 64.2146 18.4931 64.541 18.0834C64.8744 17.6737 65.107 17.1806 65.2389 16.6042H68.2702C68.1591 17.639 67.8223 18.5626 67.2598 19.3751C66.6973 20.1876 65.9438 20.8265 64.9994 21.2917C64.0619 21.757 62.9612 21.9897 61.6973 21.9897Z" fill="#141C24"/>
<path d="M79.0697 5.66675V8.16675H70.3301V5.66675H79.0697ZM72.6738 1.83342H75.7884V16.9688C75.7884 17.573 75.8787 18.0279 76.0592 18.3334C76.2398 18.632 76.4724 18.8369 76.7572 18.948C77.0488 19.0522 77.3648 19.1042 77.7051 19.1042C77.9551 19.1042 78.1738 19.0869 78.3613 19.0522C78.5488 19.0174 78.6947 18.9897 78.7988 18.9688L79.3613 21.5417C79.1808 21.6112 78.9238 21.6806 78.5905 21.7501C78.2572 21.8265 77.8405 21.8681 77.3405 21.8751C76.521 21.889 75.7572 21.7431 75.0488 21.4376C74.3405 21.132 73.7676 20.6598 73.3301 20.0209C72.8926 19.382 72.6738 18.5799 72.6738 17.6147V1.83342Z" fill="#141C24"/>
<path d="M82.515 21.6667V5.66675H85.5254V8.20841H85.6921C85.9837 7.3473 86.4976 6.67022 87.2337 6.17717C87.9768 5.67717 88.8171 5.42716 89.7546 5.42716C89.949 5.42716 90.1782 5.43411 90.4421 5.448C90.7129 5.46189 90.9247 5.47925 91.0775 5.50008V8.47925C90.9525 8.44453 90.7303 8.40633 90.4108 8.36467C90.0914 8.31605 89.7719 8.29175 89.4525 8.29175C88.7164 8.29175 88.0601 8.448 87.4837 8.7605C86.9143 9.06605 86.4629 9.49314 86.1296 10.0417C85.7962 10.5834 85.6296 11.2015 85.6296 11.8959V21.6667H82.515Z" fill="#141C24"/>
<path d="M98.2858 22.0209C97.2719 22.0209 96.3553 21.8334 95.5358 21.4584C94.7164 21.0765 94.0671 20.5244 93.5879 19.8022C93.1157 19.0799 92.8796 18.1945 92.8796 17.1459C92.8796 16.2431 93.0532 15.5001 93.4004 14.9167C93.7476 14.3334 94.2164 13.8716 94.8066 13.5313C95.3969 13.1911 96.0566 12.9341 96.7858 12.7605C97.515 12.5869 98.258 12.4549 99.015 12.3647C99.9733 12.2536 100.751 12.1633 101.348 12.0938C101.946 12.0174 102.38 11.8959 102.65 11.7292C102.921 11.5626 103.057 11.2917 103.057 10.9167V10.8438C103.057 9.93411 102.8 9.22925 102.286 8.72925C101.779 8.22925 101.022 7.97925 100.015 7.97925C98.9664 7.97925 98.14 8.21189 97.5358 8.67717C96.9386 9.1355 96.5254 9.64592 96.2962 10.2084L93.3691 9.54175C93.7164 8.56953 94.2233 7.7848 94.89 7.18758C95.5636 6.58342 96.3379 6.14591 97.2129 5.87508C98.0879 5.5973 99.008 5.45842 99.9733 5.45842C100.612 5.45842 101.289 5.5348 102.005 5.68758C102.727 5.83342 103.4 6.10425 104.025 6.50008C104.657 6.89591 105.175 7.46189 105.577 8.198C105.98 8.92717 106.182 9.87508 106.182 11.0417V21.6667H103.14V19.4792H103.015C102.814 19.882 102.512 20.2779 102.109 20.6667C101.706 21.0556 101.189 21.3786 100.557 21.6355C99.9247 21.8924 99.1678 22.0209 98.2858 22.0209ZM98.9629 19.5209C99.824 19.5209 100.56 19.3508 101.171 19.0105C101.789 18.6702 102.258 18.2258 102.577 17.6772C102.904 17.1216 103.067 16.5279 103.067 15.8959V13.8334C102.956 13.9445 102.741 14.0487 102.421 14.1459C102.109 14.2362 101.751 14.3161 101.348 14.3855C100.946 14.448 100.553 14.507 100.171 14.5626C99.7893 14.6112 99.4698 14.6529 99.2129 14.6876C98.6087 14.764 98.0566 14.8924 97.5566 15.073C97.0636 15.2536 96.6678 15.514 96.3691 15.8542C96.0775 16.1876 95.9316 16.632 95.9316 17.1876C95.9316 17.9584 96.2164 18.5417 96.7858 18.9376C97.3553 19.3265 98.0809 19.5209 98.9629 19.5209Z" fill="#141C24"/>
<path d="M110.58 21.6667V0.333415H123.809V3.10425H113.799V9.60425H122.861V12.3647H113.799V21.6667H110.58Z" fill="#141C24"/>
<path d="M136.65 15.0313V5.66675H139.775V21.6667H136.713V18.8959H136.546C136.178 19.7501 135.588 20.4619 134.775 21.0313C133.97 21.5938 132.966 21.8751 131.765 21.8751C130.737 21.8751 129.827 21.6494 129.036 21.198C128.251 20.7397 127.633 20.0626 127.182 19.1667C126.737 18.2709 126.515 17.1633 126.515 15.8438V5.66675H129.63V15.4688C129.63 16.5591 129.932 17.4272 130.536 18.073C131.14 18.7188 131.925 19.0417 132.89 19.0417C133.473 19.0417 134.053 18.8959 134.63 18.6042C135.213 18.3126 135.696 17.8716 136.077 17.2813C136.466 16.6911 136.657 15.9411 136.65 15.0313Z" fill="#141C24"/>
<path d="M155.95 9.573L153.127 10.073C153.009 9.71189 152.821 9.36814 152.564 9.04175C152.314 8.71536 151.974 8.448 151.544 8.23967C151.113 8.03133 150.575 7.92717 149.929 7.92717C149.047 7.92717 148.311 8.12508 147.721 8.52091C147.13 8.9098 146.835 9.41328 146.835 10.0313C146.835 10.5661 147.033 10.9966 147.429 11.323C147.825 11.6494 148.464 11.9167 149.346 12.1251L151.887 12.7084C153.36 13.0487 154.457 13.573 155.179 14.2813C155.901 14.9897 156.262 15.9098 156.262 17.0417C156.262 18.0001 155.985 18.8542 155.429 19.6042C154.88 20.3473 154.113 20.9306 153.127 21.3542C152.148 21.7779 151.012 21.9897 149.721 21.9897C147.929 21.9897 146.467 21.6077 145.335 20.8438C144.203 20.073 143.509 18.9792 143.252 17.5626L146.262 17.1042C146.45 17.889 146.835 18.4827 147.419 18.8855C148.002 19.2813 148.762 19.4792 149.7 19.4792C150.721 19.4792 151.537 19.2674 152.148 18.8438C152.759 18.4133 153.064 17.889 153.064 17.2709C153.064 16.7709 152.877 16.3508 152.502 16.0105C152.134 15.6702 151.568 15.4133 150.804 15.2397L148.096 14.6459C146.603 14.3056 145.498 13.764 144.783 13.0209C144.075 12.2779 143.721 11.3369 143.721 10.198C143.721 9.25355 143.985 8.42716 144.512 7.71883C145.04 7.0105 145.769 6.45842 146.7 6.06258C147.63 5.6598 148.696 5.45842 149.898 5.45842C151.627 5.45842 152.988 5.83342 153.981 6.58342C154.974 7.32647 155.63 8.323 155.95 9.573Z" fill="#141C24"/>
<path d="M166.583 21.9897C165.006 21.9897 163.649 21.6529 162.51 20.9792C161.378 20.2987 160.503 19.3438 159.885 18.1147C159.274 16.8786 158.968 15.4306 158.968 13.7709C158.968 12.132 159.274 10.6876 159.885 9.43758C160.503 8.18758 161.364 7.21189 162.468 6.5105C163.579 5.80911 164.878 5.45842 166.364 5.45842C167.267 5.45842 168.142 5.60772 168.989 5.90633C169.836 6.20494 170.597 6.67369 171.27 7.31258C171.944 7.95147 172.475 8.78133 172.864 9.80217C173.253 10.8161 173.447 12.0487 173.447 13.5001V14.6042H160.729V12.2709H170.395C170.395 11.4515 170.229 10.7258 169.895 10.0938C169.562 9.45494 169.093 8.95147 168.489 8.58342C167.892 8.21536 167.19 8.03133 166.385 8.03133C165.51 8.03133 164.746 8.24661 164.093 8.67717C163.447 9.10078 162.947 9.65633 162.593 10.3438C162.246 11.0244 162.072 11.764 162.072 12.5626V14.3855C162.072 15.4549 162.26 16.3647 162.635 17.1147C163.017 17.8647 163.548 18.4376 164.229 18.8334C164.909 19.2223 165.704 19.4167 166.614 19.4167C167.204 19.4167 167.742 19.3334 168.229 19.1667C168.715 18.9931 169.135 18.7362 169.489 18.3959C169.843 18.0556 170.114 17.6355 170.301 17.1355L173.249 17.6667C173.013 18.5348 172.59 19.2952 171.979 19.948C171.374 20.5938 170.614 21.0973 169.697 21.4584C168.788 21.8126 167.749 21.9897 166.583 21.9897Z" fill="#141C24"/>
</svg>
