<svg width="150" height="29" viewBox="0 0 150 29" fill="none" xmlns="http://www.w3.org/2000/svg">
<path d="M8.06348 22.5681C6.51859 22.5681 5.02259 22.3335 3.57548 21.8641C2.14793 21.3752 1.02348 20.7495 0.202148 19.9868L1.28748 17.6988C2.0697 18.4028 3.06704 18.9797 4.27948 19.4295C5.51148 19.8597 6.77282 20.0748 8.06348 20.0748C9.76482 20.0748 11.0359 19.7912 11.8768 19.2241C12.7177 18.6374 13.1381 17.865 13.1381 16.9068C13.1381 16.2028 12.9035 15.6357 12.4341 15.2054C11.9844 14.7557 11.4173 14.4134 10.7328 14.1788C10.0679 13.9441 9.11948 13.6801 7.88748 13.3868C6.34259 13.0152 5.09104 12.6437 4.13282 12.2721C3.19415 11.9006 2.38259 11.3334 1.69815 10.5708C1.03326 9.78856 0.700815 8.74234 0.700815 7.43212C0.700815 6.337 0.984371 5.34945 1.55148 4.46945C2.13815 3.58945 3.01815 2.88545 4.19148 2.35745C5.36482 1.82945 6.8217 1.56545 8.56215 1.56545C9.77459 1.56545 10.9675 1.72189 12.1408 2.03478C13.3141 2.34767 14.3213 2.79745 15.1621 3.38412L14.1941 5.73078C13.3337 5.18323 12.4146 4.77256 11.4368 4.49878C10.459 4.20545 9.50081 4.05878 8.56215 4.05878C6.89993 4.05878 5.64837 4.36189 4.80748 4.96812C3.98615 5.57434 3.57548 6.35656 3.57548 7.31478C3.57548 8.01878 3.81015 8.59567 4.27948 9.04545C4.74882 9.47567 5.3257 9.81789 6.01015 10.0721C6.71415 10.3068 7.66259 10.561 8.85548 10.8348C10.4004 11.2063 11.6421 11.5779 12.5808 11.9495C13.5195 12.321 14.3213 12.8881 14.9861 13.6508C15.6706 14.4134 16.0128 15.4401 16.0128 16.7308C16.0128 17.8063 15.7195 18.7939 15.1328 19.6935C14.5461 20.5735 13.6564 21.2775 12.4635 21.8055C11.2706 22.3139 9.80393 22.5681 8.06348 22.5681Z" fill="#141C24"/>
<path d="M25.9302 15.0881L22.7036 18.0801V22.3335H19.8876V0.568115H22.7036V14.5308L31.1809 6.78678H34.5836L28.0422 13.2108L35.2289 22.3335H31.7676L25.9302 15.0881Z" fill="#141C24"/>
<path d="M50.8897 6.78678L43.351 23.8881C42.6861 25.4721 41.9039 26.5868 41.0044 27.2321C40.1244 27.8775 39.0586 28.2001 37.807 28.2001C37.0444 28.2001 36.3012 28.073 35.5777 27.8188C34.8737 27.5841 34.287 27.2321 33.8177 26.7628L35.0204 24.6508C35.8221 25.4135 36.751 25.7948 37.807 25.7948C38.4915 25.7948 39.0586 25.609 39.5084 25.2375C39.9777 24.8855 40.3981 24.2695 40.7697 23.3895L41.2684 22.3041L34.4044 6.78678H37.3377L42.7644 19.2241L48.1324 6.78678H50.8897Z" fill="#141C24"/>
<path d="M67.1387 14.6481C67.1387 14.8632 67.1192 15.1468 67.0801 15.4988H54.4667C54.6427 16.8677 55.2392 17.9726 56.2561 18.8135C57.2925 19.6348 58.5734 20.0455 60.0988 20.0455C61.9565 20.0455 63.4525 19.4197 64.5867 18.1681L66.1414 19.9868C65.4374 20.8081 64.5574 21.4339 63.5014 21.8641C62.465 22.2943 61.3014 22.5095 60.0107 22.5095C58.3681 22.5095 56.9112 22.177 55.6401 21.5121C54.369 20.8277 53.3814 19.8792 52.6774 18.6668C51.993 17.4543 51.6507 16.0855 51.6507 14.5601C51.6507 13.0543 51.9832 11.6952 52.6481 10.4828C53.3325 9.27034 54.2614 8.33167 55.4348 7.66678C56.6276 6.98234 57.9672 6.64012 59.4534 6.64012C60.9396 6.64012 62.2596 6.98234 63.4134 7.66678C64.5868 8.33167 65.4961 9.27034 66.1414 10.4828C66.8063 11.6952 67.1387 13.0837 67.1387 14.6481ZM59.4534 9.01612C58.1041 9.01612 56.9699 9.42678 56.0507 10.2481C55.1512 11.0694 54.6232 12.145 54.4667 13.4748H64.4401C64.2836 12.1646 63.7459 11.0988 62.8267 10.2775C61.9272 9.43656 60.8027 9.01612 59.4534 9.01612Z" fill="#141C24"/>
<path d="M99.8974 1.80011L93.0334 22.3335H89.9534L84.3508 5.93612L78.7481 22.3335H75.6094L68.7454 1.80011H71.7668L77.3108 18.4908L83.0894 1.80011H85.7881L91.4494 18.5788L97.1108 1.80011H99.8974Z" fill="#141C24"/>
<path d="M107.562 6.64012C109.713 6.64012 111.356 7.16812 112.49 8.22412C113.644 9.28012 114.221 10.8543 114.221 12.9468V22.3335H111.551V20.2801C111.082 21.0037 110.407 21.561 109.527 21.9521C108.667 22.3237 107.64 22.5095 106.447 22.5095C104.707 22.5095 103.309 22.089 102.253 21.2481C101.216 20.4072 100.698 19.3023 100.698 17.9335C100.698 16.5646 101.197 15.4694 102.194 14.6481C103.191 13.8072 104.775 13.3868 106.946 13.3868H111.405V12.8295C111.405 11.617 111.053 10.6881 110.349 10.0428C109.645 9.39745 108.608 9.07478 107.239 9.07478C106.32 9.07478 105.421 9.23123 104.541 9.54412C103.661 9.83745 102.917 10.2383 102.311 10.7468L101.138 8.63478C101.94 7.98945 102.898 7.50056 104.013 7.16812C105.127 6.81612 106.31 6.64012 107.562 6.64012ZM106.917 20.3388C107.992 20.3388 108.921 20.1041 109.703 19.6348C110.485 19.1459 111.053 18.4615 111.405 17.5815V15.4108H107.063C104.677 15.4108 103.485 16.2126 103.485 17.8161C103.485 18.5983 103.788 19.2143 104.394 19.6641C105 20.1139 105.841 20.3388 106.917 20.3388Z" fill="#141C24"/>
<path d="M132.903 6.78678L126.097 22.3335H123.223L116.417 6.78678H119.351L124.689 19.2535L130.145 6.78678H132.903Z" fill="#141C24"/>
<path d="M149.152 14.6481C149.152 14.8632 149.132 15.1468 149.093 15.4988H136.48C136.656 16.8677 137.252 17.9726 138.269 18.8135C139.306 19.6348 140.586 20.0455 142.112 20.0455C143.97 20.0455 145.466 19.4197 146.6 18.1681L148.154 19.9868C147.45 20.8081 146.57 21.4339 145.514 21.8641C144.478 22.2943 143.314 22.5095 142.024 22.5095C140.381 22.5095 138.924 22.177 137.653 21.5121C136.382 20.8277 135.394 19.8792 134.69 18.6668C134.006 17.4543 133.664 16.0855 133.664 14.5601C133.664 13.0543 133.996 11.6952 134.661 10.4828C135.346 9.27034 136.274 8.33167 137.448 7.66678C138.641 6.98234 139.98 6.64012 141.466 6.64012C142.953 6.64012 144.273 6.98234 145.426 7.66678C146.6 8.33167 147.509 9.27034 148.154 10.4828C148.819 11.6952 149.152 13.0837 149.152 14.6481ZM141.466 9.01612C140.117 9.01612 138.983 9.42678 138.064 10.2481C137.164 11.0694 136.636 12.145 136.48 13.4748H146.453C146.297 12.1646 145.759 11.0988 144.84 10.2775C143.94 9.43656 142.816 9.01612 141.466 9.01612Z" fill="#141C24"/>
</svg>
