<svg width="141" height="23" viewBox="0 0 141 23" fill="none" xmlns="http://www.w3.org/2000/svg">
<path d="M12.2181 22.6666H0.544922V1.72648H12.2181V3.88924H2.97982V10.6353H11.6595V12.7838H2.97982V20.4895H12.2181V22.6666Z" fill="#141C24"/>
<path d="M27.2572 22.6666V12.5116C27.2572 11.2321 26.9659 10.2773 26.3835 9.64705C25.801 9.01684 24.8891 8.70174 23.6478 8.70174C22.0054 8.70174 20.8023 9.14575 20.0384 10.0338C19.2745 10.9218 18.8926 12.3875 18.8926 14.4309V22.6666H16.515V6.96867H18.4486L18.8353 9.11711H18.9499C19.4368 8.34367 20.1196 7.74688 20.998 7.32674C21.8765 6.89705 22.8553 6.68221 23.9342 6.68221C25.8249 6.68221 27.2476 7.14054 28.2025 8.05721C29.1573 8.96433 29.6348 10.4205 29.6348 12.4257V22.6666H27.2572Z" fill="#141C24"/>
<path d="M45.2754 22.6666V12.5116C45.2754 11.2321 44.9842 10.2773 44.4017 9.64705C43.8192 9.01684 42.9073 8.70174 41.666 8.70174C40.0237 8.70174 38.8205 9.14575 38.0566 10.0338C37.2928 10.9218 36.9108 12.3875 36.9108 14.4309V22.6666H34.5332V6.96867H36.4668L36.8535 9.11711H36.9681C37.4551 8.34367 38.1378 7.74688 39.0163 7.32674C39.8947 6.89705 40.8735 6.68221 41.9525 6.68221C43.8431 6.68221 45.2658 7.14054 46.2207 8.05721C47.1756 8.96433 47.653 10.4205 47.653 12.4257V22.6666H45.2754Z" fill="#141C24"/>
<path d="M66.1009 14.8033C66.1009 17.3623 65.4564 19.3628 64.1673 20.8046C62.8783 22.2369 61.0974 22.953 58.8249 22.953C57.4212 22.953 56.1751 22.6236 55.0866 21.9648C53.998 21.3059 53.1578 20.3606 52.5658 19.1288C51.9737 17.8971 51.6777 16.4552 51.6777 14.8033C51.6777 12.2443 52.3175 10.2534 53.597 8.83065C54.8765 7.39836 56.6526 6.68221 58.9251 6.68221C61.1213 6.68221 62.8639 7.41268 64.153 8.87362C65.4516 10.3346 66.1009 12.3111 66.1009 14.8033ZM54.1413 14.8033C54.1413 16.8085 54.5423 18.3363 55.3444 19.3866C56.1465 20.437 57.3257 20.9622 58.8822 20.9622C60.4386 20.9622 61.6178 20.4418 62.4199 19.401C63.2316 18.3506 63.6374 16.8181 63.6374 14.8033C63.6374 12.8076 63.2316 11.2942 62.4199 10.2629C61.6178 9.22214 60.429 8.70174 58.8535 8.70174C57.2971 8.70174 56.1226 9.21259 55.3301 10.2343C54.5375 11.256 54.1413 12.779 54.1413 14.8033Z" fill="#141C24"/>
<path d="M73.7207 22.6666L67.7624 6.96867H70.3119L73.6921 16.2786C74.4559 18.4556 74.9047 19.8688 75.0384 20.5181H75.153C75.258 20.0121 75.5875 18.9665 76.1413 17.3814C76.7046 15.7868 77.9603 12.3159 79.9082 6.96867H82.4577L76.4994 22.6666H73.7207Z" fill="#141C24"/>
<path d="M94.6322 22.6666L94.1595 20.4322H94.0449C93.2619 21.4157 92.479 22.0841 91.696 22.4374C90.9225 22.7812 89.9533 22.953 88.7884 22.953C87.232 22.953 86.0098 22.552 85.1217 21.7499C84.2433 20.9478 83.804 19.8068 83.804 18.3267C83.804 15.1566 86.3392 13.4951 91.4095 13.3424L94.0736 13.2564V12.2825C94.0736 11.0507 93.8062 10.1436 93.2715 9.56112C92.7463 8.9691 91.9013 8.67309 90.7363 8.67309C89.4282 8.67309 87.9481 9.07414 86.2962 9.87622L85.5658 8.05721C86.3392 7.63707 87.1842 7.30764 88.1009 7.06893C89.0271 6.83021 89.9533 6.71086 90.8796 6.71086C92.7511 6.71086 94.1356 7.12622 95.0332 7.95695C95.9403 8.78768 96.3939 10.1197 96.3939 11.953V22.6666H94.6322ZM89.2611 20.9908C90.7411 20.9908 91.9013 20.585 92.7415 19.7734C93.5914 18.9617 94.0163 17.8254 94.0163 16.3645V14.9465L91.6387 15.0468C89.748 15.1136 88.3826 15.4096 87.5423 15.9348C86.7116 16.4504 86.2962 17.2573 86.2962 18.3554C86.2962 19.2148 86.554 19.8688 87.0697 20.3176C87.5948 20.7664 88.3253 20.9908 89.2611 20.9908Z" fill="#141C24"/>
<path d="M106.377 20.9908C106.797 20.9908 107.203 20.9622 107.594 20.9049C107.986 20.838 108.296 20.7712 108.525 20.7043V22.5234C108.268 22.6475 107.886 22.7477 107.38 22.8241C106.883 22.9101 106.434 22.953 106.033 22.953C102.997 22.953 101.479 21.3537 101.479 18.1549V8.81632H99.2298V7.67049L101.479 6.68221L102.481 3.33065H103.856V6.96867H108.411V8.81632H103.856V18.0546C103.856 18.9999 104.081 19.7256 104.529 20.2317C104.978 20.7378 105.594 20.9908 106.377 20.9908Z" fill="#141C24"/>
<path d="M118.308 22.953C115.988 22.953 114.154 22.2464 112.808 20.8333C111.471 19.4201 110.803 17.4578 110.803 14.9465C110.803 12.4162 111.423 10.4062 112.665 8.91658C113.916 7.427 115.591 6.68221 117.692 6.68221C119.659 6.68221 121.215 7.33152 122.361 8.63013C123.507 9.91919 124.08 11.6236 124.08 13.7434V15.2473H113.266C113.314 17.0902 113.777 18.4891 114.656 19.4439C115.544 20.3988 116.79 20.8762 118.394 20.8762C120.084 20.8762 121.755 20.5229 123.407 19.8163V21.9361C122.567 22.299 121.769 22.5568 121.015 22.7096C120.27 22.8719 119.368 22.953 118.308 22.953ZM117.663 8.67309C116.403 8.67309 115.396 9.08369 114.641 9.90487C113.896 10.726 113.457 11.8623 113.324 13.3137H121.531C121.531 11.8146 121.196 10.6688 120.528 9.87622C119.86 9.07414 118.905 8.67309 117.663 8.67309Z" fill="#141C24"/>
<path d="M130.497 14.6314C130.907 14.049 131.533 13.2851 132.373 12.3398L137.443 6.96867H140.265L133.906 13.6575L140.709 22.6666H137.83L132.287 15.2473L130.497 16.7942V22.6666H128.148V0.380127H130.497V12.1965C130.497 12.7217 130.459 13.5333 130.382 14.6314H130.497Z" fill="#141C24"/>
</svg>
