<svg width="133" height="22" viewBox="0 0 133 22" fill="none" xmlns="http://www.w3.org/2000/svg">
<path d="M0.0820312 21.3333V0.799997H3.19136L13.4874 16.2587V0.799997H16.5967V21.3333H13.4874L3.19136 5.87467V21.3333H0.0820312Z" fill="#141C24"/>
<path d="M27.4523 21.6853C26.0248 21.6853 24.7537 21.3724 23.639 20.7467C22.5439 20.1013 21.6834 19.2116 21.0577 18.0773C20.4319 16.9431 20.119 15.6231 20.119 14.1173C20.119 12.592 20.4221 11.2524 21.0283 10.0987C21.6541 8.94489 22.5145 8.04533 23.6097 7.4C24.7243 6.75466 26.015 6.432 27.4817 6.432C28.9092 6.432 30.151 6.75466 31.207 7.4C32.263 8.02578 33.0843 8.86666 33.671 9.92266C34.2577 10.9787 34.551 12.1422 34.551 13.4133C34.551 13.6089 34.5412 13.824 34.5217 14.0587C34.5217 14.2738 34.5119 14.5182 34.4923 14.792H23.1697C23.2674 16.2 23.727 17.2756 24.5483 18.0187C25.3892 18.7422 26.3572 19.104 27.4523 19.104C28.3323 19.104 29.0657 18.9084 29.6523 18.5173C30.2585 18.1067 30.7083 17.5591 31.0017 16.8747H34.111C33.7199 18.2436 32.9377 19.3876 31.7643 20.3067C30.6105 21.2258 29.1732 21.6853 27.4523 21.6853ZM27.4523 8.984C26.4159 8.984 25.4968 9.29689 24.695 9.92266C23.8932 10.5289 23.4043 11.448 23.2283 12.68H31.4417C31.383 11.5458 30.9821 10.6462 30.239 9.98133C29.4959 9.31644 28.567 8.984 27.4523 8.984Z" fill="#141C24"/>
<path d="M35.5098 21.3333L40.6725 14.0587L35.5098 6.784H38.8245L42.7258 12.3573L46.5978 6.784H49.9418L44.7792 14.0587L49.9418 21.3333H46.5978L42.7258 15.76L38.8245 21.3333H35.5098Z" fill="#141C24"/>
<path d="M57.2 21.6853C55.968 21.6853 54.9511 21.48 54.1493 21.0693C53.3475 20.6587 52.7511 20.1209 52.36 19.456C51.9689 18.7716 51.7733 18.0284 51.7733 17.2267C51.7733 15.8187 52.3209 14.704 53.416 13.8827C54.5111 13.0613 56.0755 12.6507 58.1093 12.6507H61.9227V12.3867C61.9227 11.2524 61.6098 10.4018 60.984 9.83467C60.3778 9.26755 59.5858 8.984 58.608 8.984C57.7475 8.984 56.9947 9.19911 56.3493 9.62933C55.7235 10.04 55.3422 10.656 55.2053 11.4773H52.096C52.1938 10.4213 52.5458 9.52178 53.152 8.77867C53.7778 8.016 54.56 7.43911 55.4987 7.048C56.4569 6.63733 57.5031 6.432 58.6373 6.432C60.6711 6.432 62.2453 6.96978 63.36 8.04533C64.4747 9.10133 65.032 10.5484 65.032 12.3867V21.3333H62.3333L62.0693 18.84C61.6587 19.6418 61.0622 20.3164 60.28 20.864C59.4978 21.4116 58.4711 21.6853 57.2 21.6853ZM57.816 19.1627C58.6569 19.1627 59.3609 18.9671 59.928 18.576C60.5147 18.1653 60.9644 17.6276 61.2773 16.9627C61.6098 16.2978 61.8151 15.5644 61.8933 14.7627H58.432C57.2 14.7627 56.32 14.9778 55.792 15.408C55.2835 15.8382 55.0293 16.376 55.0293 17.0213C55.0293 17.6862 55.2738 18.2142 55.7627 18.6053C56.2711 18.9769 56.9555 19.1627 57.816 19.1627Z" fill="#141C24"/>
<path d="M77.9267 21.6853C75.893 21.6853 74.133 21.2453 72.6467 20.3653C71.1801 19.4658 70.0459 18.224 69.2441 16.64C68.4423 15.0364 68.0414 13.1884 68.0414 11.096C68.0414 8.984 68.4423 7.136 69.2441 5.552C70.0459 3.94844 71.1801 2.69689 72.6467 1.79733C74.133 0.897776 75.893 0.447998 77.9267 0.447998C80.3321 0.447998 82.2974 1.03466 83.8227 2.208C85.3481 3.38133 86.3161 5.024 86.7267 7.136H83.2654C82.9916 5.94311 82.405 4.99467 81.5054 4.29066C80.6059 3.58666 79.4032 3.23466 77.8974 3.23466C75.8441 3.23466 74.221 3.93866 73.0281 5.34666C71.8352 6.73511 71.2387 8.65155 71.2387 11.096C71.2387 13.5209 71.8352 15.4276 73.0281 16.816C74.221 18.2044 75.8441 18.8987 77.8974 18.8987C79.4032 18.8987 80.6059 18.5662 81.5054 17.9013C82.405 17.2364 82.9916 16.3271 83.2654 15.1733H86.7267C86.3161 17.2071 85.3481 18.8009 83.8227 19.9547C82.2974 21.1084 80.3321 21.6853 77.9267 21.6853Z" fill="#141C24"/>
<path d="M96.8325 21.6853C95.4441 21.6853 94.1925 21.3724 93.0779 20.7467C91.9828 20.1013 91.1125 19.2116 90.4672 18.0773C89.8219 16.9236 89.4992 15.584 89.4992 14.0587C89.4992 12.5333 89.8219 11.2036 90.4672 10.0693C91.1321 8.91555 92.0219 8.02578 93.1365 7.4C94.2512 6.75466 95.493 6.432 96.8619 6.432C98.2503 6.432 99.4921 6.75466 100.587 7.4C101.702 8.02578 102.582 8.91555 103.227 10.0693C103.892 11.2036 104.225 12.5333 104.225 14.0587C104.225 15.584 103.892 16.9236 103.227 18.0773C102.582 19.2116 101.702 20.1013 100.587 20.7467C99.4725 21.3724 98.221 21.6853 96.8325 21.6853ZM96.8325 19.016C97.5757 19.016 98.2601 18.8302 98.8859 18.4587C99.5312 18.0871 100.049 17.5396 100.441 16.816C100.832 16.0729 101.027 15.1538 101.027 14.0587C101.027 12.9636 100.832 12.0542 100.441 11.3307C100.069 10.5876 99.5605 10.0302 98.9152 9.65866C98.2894 9.28711 97.605 9.10133 96.8619 9.10133C96.1188 9.10133 95.4245 9.28711 94.7792 9.65866C94.1534 10.0302 93.645 10.5876 93.2539 11.3307C92.8628 12.0542 92.6672 12.9636 92.6672 14.0587C92.6672 15.1538 92.8628 16.0729 93.2539 16.816C93.645 17.5396 94.1534 18.0871 94.7792 18.4587C95.405 18.8302 96.0894 19.016 96.8325 19.016Z" fill="#141C24"/>
<path d="M107.587 21.3333V6.784H110.374L110.638 9.54133C111.146 8.58311 111.85 7.83022 112.75 7.28266C113.669 6.71555 114.774 6.432 116.064 6.432V9.688H115.214C114.353 9.688 113.581 9.83467 112.896 10.128C112.232 10.4018 111.694 10.8809 111.283 11.5653C110.892 12.2302 110.696 13.1591 110.696 14.352V21.3333H107.587Z" fill="#141C24"/>
<path d="M125.135 21.6853C123.707 21.6853 122.436 21.3724 121.321 20.7467C120.226 20.1013 119.366 19.2116 118.74 18.0773C118.114 16.9431 117.801 15.6231 117.801 14.1173C117.801 12.592 118.104 11.2524 118.711 10.0987C119.336 8.94489 120.197 8.04533 121.292 7.4C122.407 6.75466 123.697 6.432 125.164 6.432C126.592 6.432 127.833 6.75466 128.889 7.4C129.945 8.02578 130.767 8.86666 131.353 9.92266C131.94 10.9787 132.233 12.1422 132.233 13.4133C132.233 13.6089 132.224 13.824 132.204 14.0587C132.204 14.2738 132.194 14.5182 132.175 14.792H120.852C120.95 16.2 121.409 17.2756 122.231 18.0187C123.072 18.7422 124.04 19.104 125.135 19.104C126.015 19.104 126.748 18.9084 127.335 18.5173C127.941 18.1067 128.391 17.5591 128.684 16.8747H131.793C131.402 18.2436 130.62 19.3876 129.447 20.3067C128.293 21.2258 126.856 21.6853 125.135 21.6853ZM125.135 8.984C124.098 8.984 123.179 9.29689 122.377 9.92266C121.576 10.5289 121.087 11.448 120.911 12.68H129.124C129.065 11.5458 128.664 10.6462 127.921 9.98133C127.178 9.31644 126.249 8.984 125.135 8.984Z" fill="#141C24"/>
</svg>
