<svg width="135" height="23" viewBox="0 0 135 23" fill="none" xmlns="http://www.w3.org/2000/svg">
<path d="M3.38542 1.81258V22.6667H0.621094V1.81258H3.38542Z" fill="#141C24"/>
<path d="M10.6615 10.4779V22.6667H8.01172V7.16935H10.5182L10.6615 10.4779ZM10.0313 14.3308L8.92839 14.2878C8.93793 13.2279 9.09549 12.2492 9.40104 11.3516C9.7066 10.4445 10.1363 9.65677 10.6901 8.98836C11.2439 8.31996 11.9028 7.80434 12.6667 7.44149C13.4401 7.06909 14.2947 6.88289 15.2305 6.88289C15.9944 6.88289 16.6819 6.98793 17.293 7.198C17.9041 7.39852 18.4245 7.72317 18.8542 8.17196C19.2934 8.62074 19.6276 9.20321 19.8568 9.91935C20.0859 10.6259 20.2005 11.4901 20.2005 12.5118V22.6667H17.5365V12.4832C17.5365 11.6715 17.4171 11.0222 17.1784 10.5352C16.9397 10.0387 16.5911 9.68064 16.1328 9.46102C15.6745 9.23185 15.1111 9.11727 14.4427 9.11727C13.7839 9.11727 13.1823 9.25572 12.638 9.53263C12.1033 9.80954 11.6402 10.1915 11.2487 10.6785C10.8668 11.1654 10.566 11.724 10.3464 12.3542C10.1363 12.9749 10.0313 13.6338 10.0313 14.3308Z" fill="#141C24"/>
<path d="M27.763 22.6667H25.1133V5.823C25.1133 4.64852 25.3425 3.65546 25.8008 2.84383C26.2591 2.0322 26.9132 1.41631 27.763 0.996175C28.6129 0.576036 29.6202 0.365967 30.7852 0.365967C31.4727 0.365967 32.1458 0.451904 32.8047 0.623779C33.4635 0.786106 34.1415 0.991401 34.8385 1.23966L34.3945 3.47404C33.9553 3.30216 33.4444 3.13984 32.862 2.98706C32.2891 2.82473 31.6589 2.74357 30.9714 2.74357C29.8351 2.74357 29.0139 3.00138 28.5078 3.51701C28.0113 4.02308 27.763 4.79175 27.763 5.823V22.6667ZM30.9284 7.16935V9.20321H22.6641V7.16935H30.9284ZM36.1419 7.16935V22.6667H33.4922V7.16935H36.1419Z" fill="#141C24"/>
<path d="M43.1458 10.4779V22.6667H40.4961V7.16935H43.0026L43.1458 10.4779ZM42.5156 14.3308L41.4128 14.2878C41.4223 13.2279 41.5799 12.2492 41.8854 11.3516C42.191 10.4445 42.6207 9.65677 43.1745 8.98836C43.7283 8.31996 44.3872 7.80434 45.151 7.44149C45.9245 7.06909 46.7791 6.88289 47.7148 6.88289C48.4787 6.88289 49.1662 6.98793 49.7774 7.198C50.3885 7.39852 50.9089 7.72317 51.3385 8.17196C51.7778 8.62074 52.112 9.20321 52.3412 9.91935C52.5703 10.6259 52.6849 11.4901 52.6849 12.5118V22.6667H50.0208V12.4832C50.0208 11.6715 49.9015 11.0222 49.6628 10.5352C49.424 10.0387 49.0755 9.68064 48.6172 9.46102C48.1589 9.23185 47.5955 9.11727 46.9271 9.11727C46.2682 9.11727 45.6667 9.25572 45.1224 9.53263C44.5877 9.80954 44.1246 10.1915 43.7331 10.6785C43.3511 11.1654 43.0504 11.724 42.8307 12.3542C42.6207 12.9749 42.5156 13.6338 42.5156 14.3308Z" fill="#141C24"/>
<path d="M59.5886 7.16935V22.6667H56.9245V7.16935H59.5886ZM56.724 3.05868C56.724 2.62899 56.8529 2.26614 57.1107 1.97013C57.378 1.67413 57.7695 1.52612 58.2852 1.52612C58.7912 1.52612 59.178 1.67413 59.4453 1.97013C59.7222 2.26614 59.8607 2.62899 59.8607 3.05868C59.8607 3.46927 59.7222 3.82256 59.4453 4.11857C59.178 4.40503 58.7912 4.54826 58.2852 4.54826C57.7695 4.54826 57.378 4.40503 57.1107 4.11857C56.8529 3.82256 56.724 3.46927 56.724 3.05868Z" fill="#141C24"/>
<path d="M70.3307 7.16935V9.20321H61.9518V7.16935H70.3307ZM64.7878 3.40243H67.4375V18.8282C67.4375 19.3534 67.5187 19.7496 67.681 20.017C67.8433 20.2844 68.0534 20.461 68.3112 20.547C68.569 20.6329 68.8459 20.6759 69.1419 20.6759C69.3616 20.6759 69.5907 20.6568 69.8294 20.6186C70.0777 20.5708 70.2639 20.5326 70.388 20.504L70.4024 22.6667C70.1923 22.7336 69.9154 22.7957 69.5716 22.8529C69.2374 22.9198 68.8316 22.9532 68.3542 22.9532C67.7049 22.9532 67.1081 22.8243 66.5638 22.5665C66.0195 22.3087 65.5851 21.879 65.2604 21.2774C64.9453 20.6663 64.7878 19.8451 64.7878 18.8139V3.40243Z" fill="#141C24"/>
<path d="M82.9206 19.086V7.16935H85.5846V22.6667H83.0495L82.9206 19.086ZM83.4219 15.8204L84.5247 15.7917C84.5247 16.823 84.4149 17.7779 84.1953 18.6563C83.9853 19.5253 83.6415 20.2796 83.1641 20.9194C82.6866 21.5591 82.0612 22.0604 81.2878 22.4233C80.5143 22.7766 79.5738 22.9532 78.4662 22.9532C77.7118 22.9532 77.0195 22.8434 76.3893 22.6238C75.7687 22.4042 75.2339 22.0652 74.7852 21.6069C74.3364 21.1485 73.9879 20.5517 73.7396 19.8165C73.5009 19.0812 73.3815 18.198 73.3815 17.1667V7.16935H76.0313V17.1954C76.0313 17.8924 76.1077 18.4701 76.2604 18.9285C76.4228 19.3773 76.6376 19.7353 76.905 20.0027C77.1819 20.2605 77.4874 20.4419 77.8216 20.547C78.1654 20.652 78.5187 20.7045 78.8815 20.7045C80.0083 20.7045 80.9011 20.4897 81.5599 20.06C82.2188 19.6207 82.6914 19.0335 82.9779 18.2983C83.2739 17.5535 83.4219 16.7275 83.4219 15.8204Z" fill="#141C24"/>
<path d="M92.2591 10.2488V22.6667H89.5951V7.16935H92.1159L92.2591 10.2488ZM91.7149 14.3308L90.4831 14.2878C90.4926 13.2279 90.6311 12.2492 90.8984 11.3516C91.1658 10.4445 91.5621 9.65677 92.0872 8.98836C92.6124 8.31996 93.2665 7.80434 94.0495 7.44149C94.8325 7.06909 95.7396 6.88289 96.7708 6.88289C97.4965 6.88289 98.1649 6.98793 98.7761 7.198C99.3872 7.39852 99.9171 7.7184 100.366 8.15763C100.815 8.59687 101.163 9.16024 101.411 9.84774C101.66 10.5352 101.784 11.366 101.784 12.3399V22.6667H99.1341V12.4688C99.1341 11.6572 98.9957 11.0079 98.7188 10.5209C98.4514 10.0339 98.0695 9.68064 97.5729 9.46102C97.0764 9.23185 96.4939 9.11727 95.8255 9.11727C95.0425 9.11727 94.3885 9.25572 93.8633 9.53263C93.3381 9.80954 92.918 10.1915 92.6029 10.6785C92.2878 11.1654 92.0586 11.724 91.9154 12.3542C91.7817 12.9749 91.7149 13.6338 91.7149 14.3308ZM101.755 12.8699L99.9792 13.4141C99.9887 12.5643 100.127 11.7479 100.395 10.9649C100.671 10.1819 101.068 9.48489 101.583 8.87378C102.109 8.26267 102.753 7.78046 103.517 7.42717C104.281 7.06432 105.155 6.88289 106.138 6.88289C106.969 6.88289 107.704 6.9927 108.344 7.21232C108.993 7.43194 109.537 7.77092 109.977 8.22925C110.425 8.67803 110.764 9.25572 110.993 9.96232C111.223 10.6689 111.337 11.5092 111.337 12.4832V22.6667H108.673V12.4545C108.673 11.5856 108.535 10.9124 108.258 10.435C107.99 9.948 107.609 9.60902 107.112 9.41805C106.625 9.21753 106.043 9.11727 105.365 9.11727C104.782 9.11727 104.267 9.21753 103.818 9.41805C103.369 9.61857 102.992 9.89548 102.686 10.2488C102.381 10.5925 102.147 10.9888 101.984 11.4376C101.832 11.8864 101.755 12.3638 101.755 12.8699Z" fill="#141C24"/>
<path d="M118.227 7.16935V22.6667H115.563V7.16935H118.227ZM115.362 3.05868C115.362 2.62899 115.491 2.26614 115.749 1.97013C116.016 1.67413 116.408 1.52612 116.923 1.52612C117.429 1.52612 117.816 1.67413 118.083 1.97013C118.36 2.26614 118.499 2.62899 118.499 3.05868C118.499 3.46927 118.36 3.82256 118.083 4.11857C117.816 4.40503 117.429 4.54826 116.923 4.54826C116.408 4.54826 116.016 4.40503 115.749 4.11857C115.491 3.82256 115.362 3.46927 115.362 3.05868Z" fill="#141C24"/>
<path d="M124.271 7.16935L127.665 12.8126L131.103 7.16935H134.211L129.141 14.8178L134.368 22.6667H131.303L127.723 16.8516L124.142 22.6667H121.063L126.276 14.8178L121.22 7.16935H124.271Z" fill="#141C24"/>
</svg>
