<svg width="116" height="20" viewBox="0 0 116 20" fill="none" xmlns="http://www.w3.org/2000/svg">
<path d="M0.212891 19.3334V18.5121L10.7142 1.67475H3.02889C2.52045 1.67475 2.24667 1.88986 2.20756 2.32008L1.76756 5.75208H1.09289V4.37341C1.09289 2.65252 1.00489 1.39119 0.828891 0.589413C1.45467 0.765413 2.54 0.853414 4.08489 0.853414H13.5596V1.67475L3.02889 18.5121H11.3596C11.868 18.5121 12.1418 18.297 12.1809 17.8667L12.6209 14.4347H13.2956V15.8134C13.2956 17.5343 13.3836 18.7956 13.5596 19.5974C12.9338 19.4214 11.8484 19.3334 10.3036 19.3334H0.212891Z" fill="#141C24"/>
<path d="M21.5279 6.30941C22.8772 6.30941 23.943 6.75919 24.7252 7.65875C25.5075 8.5583 25.8986 9.8783 25.8986 11.6187C25.8986 11.9707 25.879 12.3619 25.8399 12.7921H17.8319V12.9974C17.8319 14.8552 18.1644 16.3219 18.8292 17.3974C19.5137 18.4534 20.3839 18.9814 21.4399 18.9814C22.5155 18.9814 23.3955 18.7076 24.0799 18.1601C24.7644 17.6125 25.2337 16.8303 25.4879 15.8134L26.0452 15.9307C25.8106 17.1236 25.2728 18.0525 24.4319 18.7174C23.591 19.3627 22.623 19.6854 21.5279 19.6854C19.8266 19.6854 18.4088 19.089 17.2746 17.8961C16.1599 16.7032 15.6026 15.0801 15.6026 13.0267C15.6026 10.9539 16.1697 9.32097 17.3039 8.12808C18.4381 6.91564 19.8461 6.30941 21.5279 6.30941ZM23.8746 10.6214C23.8746 8.21608 22.975 7.01341 21.1759 7.01341C20.2764 7.01341 19.5039 7.5023 18.8586 8.48008C18.2328 9.45786 17.9004 10.6996 17.8612 12.2054H23.7572C23.8355 11.5405 23.8746 11.0125 23.8746 10.6214Z" fill="#141C24"/>
<path d="M40.6358 10.7681V18.4534C40.6358 18.6881 40.7727 18.8054 41.0465 18.8054H42.4252V19.3334H37.1452V18.8054H38.1132C38.3869 18.8054 38.5238 18.6881 38.5238 18.4534V10.3867C38.5238 9.38942 38.2989 8.65608 37.8492 8.18675C37.4189 7.69786 36.8421 7.45341 36.1185 7.45341C35.1016 7.45341 34.2607 8.05964 33.5958 9.27208C32.9309 10.465 32.5985 12.1859 32.5985 14.4347V18.3947C32.5985 18.6685 32.7354 18.8054 33.0092 18.8054H33.9772V19.3334H28.6972V18.8054H30.0758C30.3496 18.8054 30.4865 18.6881 30.4865 18.4534V7.60008C30.4865 7.3263 30.3496 7.18941 30.0758 7.18941H28.6972V6.66141H30.1345C31.3078 6.66141 32.1292 6.60275 32.5985 6.48541V10.4747C33.2634 7.69786 34.7301 6.30941 36.9985 6.30941C38.0154 6.30941 38.8758 6.68097 39.5798 7.42408C40.2838 8.14764 40.6358 9.2623 40.6358 10.7681Z" fill="#141C24"/>
<path d="M46.5568 18.3947V7.60008C46.5568 7.3263 46.4199 7.18941 46.1461 7.18941H44.7675V6.66141H46.2048C47.3781 6.66141 48.1995 6.60275 48.6688 6.48541V18.4534C48.6688 18.6881 48.8057 18.8054 49.0795 18.8054H50.4581V19.3334H44.7675V18.8054H46.1461C46.4199 18.8054 46.5568 18.6685 46.5568 18.3947ZM46.6155 3.43475C46.3613 3.16097 46.2341 2.82853 46.2341 2.43741C46.2341 2.0463 46.3613 1.72364 46.6155 1.46941C46.8893 1.19564 47.2217 1.05875 47.6128 1.05875C48.0039 1.05875 48.3266 1.19564 48.5808 1.46941C48.8546 1.72364 48.9915 2.0463 48.9915 2.43741C48.9915 2.82853 48.8546 3.16097 48.5808 3.43475C48.3266 3.68897 48.0039 3.81608 47.6128 3.81608C47.2217 3.81608 46.8893 3.68897 46.6155 3.43475Z" fill="#141C24"/>
<path d="M55.3731 3.55208H55.8131V6.66141H58.7464V7.18941H55.8131V17.1334C55.8131 18.1894 56.1064 18.7174 56.6931 18.7174C56.9669 18.7174 57.2015 18.5903 57.3971 18.3361C57.6122 18.0819 57.7197 17.7885 57.7197 17.4561C57.7197 17.1236 57.6904 16.8107 57.6317 16.5174L58.1891 16.4294C58.2673 16.7227 58.3064 17.0454 58.3064 17.3974C58.3064 18.1014 58.0913 18.6587 57.6611 19.0694C57.2504 19.4801 56.7029 19.6854 56.0184 19.6854C55.334 19.6854 54.7766 19.4116 54.3464 18.8641C53.9162 18.297 53.7011 17.4561 53.7011 16.3414V7.60008C53.7011 7.3263 53.5642 7.18941 53.2904 7.18941H51.9117V6.66141H53.3491C53.9749 6.66141 54.6495 5.62497 55.3731 3.55208Z" fill="#141C24"/>
<path d="M72.1646 10.7681V18.4534C72.1646 18.6881 72.3015 18.8054 72.5752 18.8054H73.9539V19.3334H68.6739V18.8054H69.6419C69.9157 18.8054 70.0526 18.6881 70.0526 18.4534V10.3867C70.0526 9.38942 69.8277 8.65608 69.3779 8.18675C68.9477 7.69786 68.3708 7.45341 67.6472 7.45341C66.6304 7.45341 65.7895 8.05964 65.1246 9.27208C64.4597 10.465 64.1272 12.1859 64.1272 14.4347V18.3947C64.1272 18.6685 64.2641 18.8054 64.5379 18.8054H65.5059V19.3334H60.2259V18.8054H61.6046C61.8784 18.8054 62.0152 18.6881 62.0152 18.4534V1.26408C62.0152 0.990303 61.8784 0.853414 61.6046 0.853414H60.2259V0.325415H61.6632C62.8366 0.325415 63.6579 0.266748 64.1272 0.149414V10.4747C64.7921 7.69786 66.2588 6.30941 68.5273 6.30941C69.5441 6.30941 70.4046 6.68097 71.1086 7.42408C71.8126 8.14764 72.1646 9.2623 72.1646 10.7681Z" fill="#141C24"/>
<path d="M83.4966 6.30941C84.2593 6.30941 84.8753 6.63208 85.3446 7.27742C85.8335 7.92275 86.078 8.7343 86.078 9.71208C86.078 10.6899 85.6771 11.1787 84.8753 11.1787C84.406 11.1787 84.0246 11.0321 83.7313 10.7387C83.9855 10.1716 84.1126 9.59475 84.1126 9.00808C84.1126 7.97164 83.6824 7.45341 82.822 7.45341C82.0984 7.45341 81.4531 8.05964 80.886 9.27208C80.3384 10.465 80.0646 12.2054 80.0646 14.4934V18.3947C80.0646 18.6685 80.2015 18.8054 80.4753 18.8054H82.4406V19.3334H76.1633V18.8054H77.542C77.8158 18.8054 77.9526 18.6685 77.9526 18.3947V7.60008C77.9526 7.3263 77.8158 7.18941 77.542 7.18941H76.1633V6.66141H77.6006C78.774 6.66141 79.5953 6.60275 80.0646 6.48541V10.2401C80.3775 8.89075 80.8371 7.90319 81.4433 7.27742C82.0495 6.63208 82.734 6.30941 83.4966 6.30941Z" fill="#141C24"/>
<path d="M89.0317 17.8961C87.9366 16.7032 87.389 15.0703 87.389 12.9974C87.389 10.9245 87.9366 9.29164 89.0317 8.09875C90.1268 6.90586 91.5544 6.30941 93.3144 6.30941C95.0744 6.30941 96.5019 6.90586 97.597 8.09875C98.7117 9.29164 99.269 10.9245 99.269 12.9974C99.269 15.0703 98.7117 16.7032 97.597 17.8961C96.5019 19.089 95.0744 19.6854 93.3144 19.6854C91.5544 19.6854 90.1268 19.089 89.0317 17.8961ZM90.6744 8.59741C89.9704 9.67297 89.6184 11.1396 89.6184 12.9974C89.6184 14.8552 89.9704 16.3316 90.6744 17.4267C91.3784 18.5023 92.2584 19.0401 93.3144 19.0401C94.3704 19.0401 95.2504 18.5023 95.9544 17.4267C96.6779 16.3316 97.0397 14.8552 97.0397 12.9974C97.0397 11.1396 96.6779 9.67297 95.9544 8.59741C95.2504 7.5023 94.3704 6.95475 93.3144 6.95475C92.2584 6.95475 91.3784 7.5023 90.6744 8.59741Z" fill="#141C24"/>
<path d="M113.711 10.7681V18.4534C113.711 18.6881 113.848 18.8054 114.122 18.8054H115.501V19.3334H110.221V18.8054H111.189C111.462 18.8054 111.599 18.6881 111.599 18.4534V10.3867C111.599 9.38942 111.374 8.65608 110.925 8.18675C110.494 7.69786 109.918 7.45341 109.194 7.45341C108.177 7.45341 107.336 8.05964 106.671 9.27208C106.006 10.465 105.674 12.1859 105.674 14.4347V18.3947C105.674 18.6685 105.811 18.8054 106.085 18.8054H107.053V19.3334H101.773V18.8054H103.151C103.425 18.8054 103.562 18.6881 103.562 18.4534V7.60008C103.562 7.3263 103.425 7.18941 103.151 7.18941H101.773V6.66141H103.21C104.383 6.66141 105.205 6.60275 105.674 6.48541V10.4747C106.339 7.69786 107.806 6.30941 110.074 6.30941C111.091 6.30941 111.951 6.68097 112.655 7.42408C113.359 8.14764 113.711 9.2623 113.711 10.7681Z" fill="#141C24"/>
</svg>
