<svg width="122" height="23" viewBox="0 0 122 23" fill="none" xmlns="http://www.w3.org/2000/svg">
<path d="M17.6338 0.854167V22.1875H14.6755L3.83171 6.54167H3.63379V22.1875H0.415039V0.854167H3.39421L14.2484 16.5208H14.4463V0.854167H17.6338Z" fill="#141C24"/>
<path d="M28.8187 22.5104C27.3187 22.5104 26.0097 22.1667 24.8916 21.4792C23.7735 20.7917 22.9055 19.8299 22.2874 18.5937C21.6694 17.3576 21.3604 15.9132 21.3604 14.2604C21.3604 12.6007 21.6694 11.1493 22.2874 9.90625C22.9055 8.66319 23.7735 7.69792 24.8916 7.01042C26.0097 6.32292 27.3187 5.97917 28.8187 5.97917C30.3187 5.97917 31.6277 6.32292 32.7458 7.01042C33.8638 7.69792 34.7319 8.66319 35.3499 9.90625C35.968 11.1493 36.277 12.6007 36.277 14.2604C36.277 15.9132 35.968 17.3576 35.3499 18.5937C34.7319 19.8299 33.8638 20.7917 32.7458 21.4792C31.6277 22.1667 30.3187 22.5104 28.8187 22.5104ZM28.8291 19.8958C29.8013 19.8958 30.6069 19.6389 31.2458 19.125C31.8847 18.6111 32.3569 17.9271 32.6624 17.0729C32.9749 16.2187 33.1312 15.2778 33.1312 14.25C33.1312 13.2292 32.9749 12.2917 32.6624 11.4375C32.3569 10.5764 31.8847 9.88542 31.2458 9.36458C30.6069 8.84375 29.8013 8.58333 28.8291 8.58333C27.8499 8.58333 27.0374 8.84375 26.3916 9.36458C25.7527 9.88542 25.277 10.5764 24.9645 11.4375C24.659 12.2917 24.5062 13.2292 24.5062 14.25C24.5062 15.2778 24.659 16.2187 24.9645 17.0729C25.277 17.9271 25.7527 18.6111 26.3916 19.125C27.0374 19.6389 27.8499 19.8958 28.8291 19.8958Z" fill="#141C24"/>
<path d="M52.8968 6.1875L47.0947 22.1875H43.7614L37.9489 6.1875H41.2926L45.3447 18.5H45.5114L49.5531 6.1875H52.8968Z" fill="#141C24"/>
<path d="M55.8239 22.1875V6.1875H58.9385V22.1875H55.8239ZM57.3968 3.71875C56.8551 3.71875 56.3899 3.53819 56.001 3.17708C55.619 2.80903 55.4281 2.37153 55.4281 1.86458C55.4281 1.35069 55.619 0.913194 56.001 0.552083C56.3899 0.184028 56.8551 0 57.3968 0C57.9385 0 58.4003 0.184028 58.7822 0.552083C59.1711 0.913194 59.3656 1.35069 59.3656 1.86458C59.3656 2.37153 59.1711 2.80903 58.7822 3.17708C58.4003 3.53819 57.9385 3.71875 57.3968 3.71875Z" fill="#141C24"/>
<path d="M70.0244 22.5104C68.448 22.5104 67.0904 22.1736 65.9515 21.5C64.8196 20.8194 63.9446 19.8646 63.3265 18.6354C62.7154 17.3993 62.4098 15.9514 62.4098 14.2917C62.4098 12.6528 62.7154 11.2083 63.3265 9.95833C63.9446 8.70833 64.8057 7.73264 65.9098 7.03125C67.0209 6.32986 68.3196 5.97917 69.8057 5.97917C70.7084 5.97917 71.5834 6.12847 72.4307 6.42708C73.2779 6.72569 74.0383 7.19444 74.7119 7.83333C75.3855 8.47222 75.9168 9.30208 76.3057 10.3229C76.6946 11.3368 76.889 12.5694 76.889 14.0208V15.125H64.1702V12.7917H73.8369C73.8369 11.9722 73.6702 11.2465 73.3369 10.6146C73.0036 9.97569 72.5348 9.47222 71.9307 9.10417C71.3334 8.73611 70.6321 8.55208 69.8265 8.55208C68.9515 8.55208 68.1876 8.76736 67.5348 9.19792C66.889 9.62153 66.389 10.1771 66.0348 10.8646C65.6876 11.5451 65.514 12.2847 65.514 13.0833V14.9062C65.514 15.9757 65.7015 16.8854 66.0765 17.6354C66.4584 18.3854 66.9897 18.9583 67.6702 19.3542C68.3508 19.7431 69.1459 19.9375 70.0557 19.9375C70.6459 19.9375 71.1841 19.8542 71.6702 19.6875C72.1564 19.5139 72.5765 19.2569 72.9307 18.9167C73.2848 18.5764 73.5557 18.1562 73.7432 17.6562L76.6911 18.1875C76.455 19.0556 76.0314 19.816 75.4202 20.4687C74.8161 21.1146 74.0557 21.6181 73.139 21.9792C72.2293 22.3333 71.1911 22.5104 70.0244 22.5104Z" fill="#141C24"/>
<path d="M82.4307 6.1875L85.9619 12.4167L89.5244 6.1875H92.9307L87.9411 14.1875L92.9723 22.1875H89.5661L85.9619 16.2083L82.3682 22.1875H78.9515L83.9307 14.1875L79.014 6.1875H82.4307Z" fill="#141C24"/>
<path d="M100.756 22.5417C99.7423 22.5417 98.8256 22.3542 98.0062 21.9792C97.1867 21.5972 96.5374 21.0451 96.0583 20.3229C95.5861 19.6007 95.3499 18.7153 95.3499 17.6667C95.3499 16.7639 95.5236 16.0208 95.8708 15.4375C96.218 14.8542 96.6867 14.3924 97.277 14.0521C97.8673 13.7118 98.527 13.4549 99.2562 13.2812C99.9854 13.1076 100.728 12.9757 101.485 12.8854C102.444 12.7743 103.221 12.684 103.819 12.6146C104.416 12.5382 104.85 12.4167 105.121 12.25C105.392 12.0833 105.527 11.8125 105.527 11.4375V11.3646C105.527 10.4549 105.27 9.75 104.756 9.25C104.249 8.75 103.492 8.5 102.485 8.5C101.437 8.5 100.61 8.73264 100.006 9.19792C99.409 9.65625 98.9958 10.1667 98.7666 10.7292L95.8395 10.0625C96.1867 9.09028 96.6937 8.30556 97.3604 7.70833C98.034 7.10417 98.8083 6.66667 99.6833 6.39583C100.558 6.11806 101.478 5.97917 102.444 5.97917C103.083 5.97917 103.76 6.05556 104.475 6.20833C105.197 6.35417 105.871 6.625 106.496 7.02083C107.128 7.41667 107.645 7.98264 108.048 8.71875C108.451 9.44792 108.652 10.3958 108.652 11.5625V22.1875H105.61V20H105.485C105.284 20.4028 104.982 20.7986 104.579 21.1875C104.176 21.5764 103.659 21.8993 103.027 22.1562C102.395 22.4132 101.638 22.5417 100.756 22.5417ZM101.433 20.0417C102.294 20.0417 103.03 19.8715 103.642 19.5312C104.26 19.191 104.728 18.7465 105.048 18.1979C105.374 17.6424 105.537 17.0486 105.537 16.4167V14.3542C105.426 14.4653 105.211 14.5694 104.892 14.6667C104.579 14.7569 104.221 14.8368 103.819 14.9062C103.416 14.9687 103.024 15.0278 102.642 15.0833C102.26 15.1319 101.94 15.1736 101.683 15.2083C101.079 15.2847 100.527 15.4132 100.027 15.5937C99.534 15.7743 99.1381 16.0347 98.8395 16.375C98.5479 16.7083 98.402 17.1528 98.402 17.7083C98.402 18.4792 98.6867 19.0625 99.2562 19.4583C99.8256 19.8472 100.551 20.0417 101.433 20.0417Z" fill="#141C24"/>
<path d="M112.8 22.1875V6.1875H115.811V8.72917H115.978C116.269 7.86805 116.783 7.19097 117.519 6.69792C118.262 6.19792 119.103 5.94792 120.04 5.94792C120.234 5.94792 120.464 5.95486 120.728 5.96875C120.998 5.98264 121.21 6 121.363 6.02083V9C121.238 8.96528 121.016 8.92708 120.696 8.88542C120.377 8.83681 120.057 8.8125 119.738 8.8125C119.002 8.8125 118.346 8.96875 117.769 9.28125C117.2 9.58681 116.748 10.0139 116.415 10.5625C116.082 11.1042 115.915 11.7222 115.915 12.4167V22.1875H112.8Z" fill="#141C24"/>
</svg>
