<svg width="22" height="18" viewBox="0 0 22 18" fill="none" xmlns="http://www.w3.org/2000/svg">
<path d="M7.34156 18C4.91531 18 2.65363 17.2943 0.75 16.0767C2.36624 16.1813 5.21855 15.9308 6.99268 14.2386C4.32381 14.1161 3.1202 12.0692 2.9632 11.1945C3.18997 11.2819 4.27148 11.3869 4.882 11.142C1.81192 10.3722 1.34095 7.67799 1.44561 6.85573C2.02125 7.25811 2.99809 7.39807 3.38185 7.36308C0.521095 5.31618 1.55027 2.23707 2.05613 1.57226C4.10912 4.4165 7.1859 6.01393 10.9923 6.10278C10.9205 5.78802 10.8826 5.46032 10.8826 5.12373C10.8826 2.70819 12.8351 0.75 15.2435 0.75C16.5019 0.75 17.6358 1.28457 18.4318 2.13963C19.2727 1.94258 20.5382 1.4813 21.1569 1.0824C20.8451 2.20208 19.8742 3.13612 19.2869 3.48231C19.2821 3.47048 19.2918 3.49408 19.2869 3.48231C19.8028 3.40428 21.1986 3.13603 21.75 2.76192C21.4773 3.39094 20.448 4.4368 19.6033 5.02232C19.7605 11.9535 14.4574 18 7.34156 18Z" fill="#97A1AF"/>
</svg>
